<?xml version="1.0" encoding="utf-8"?>
<!-- Generator: Adobe Illustrator 24.1.2, SVG Export Plug-In . SVG Version: 6.00 Build 0)  -->
<svg version="1.1" id="Livello_1" xmlns="http://www.w3.org/2000/svg" xmlns:xlink="http://www.w3.org/1999/xlink" x="0px" y="0px"
	 viewBox="0 0 409.6 408.8" style="enable-background:new 0 0 409.6 408.8;" xml:space="preserve">
<style type="text/css">
	.st0{fill:#6F6C98;}
	.st1{fill:#ECE6E8;}
	.st2{fill:#46436E;}
	.st3{fill:#FEFEFE;}
	.st4{fill:#FDA473;}
	.st5{fill:#FCA373;}
	.st6{fill:#E9794C;}
</style>
<g>
	<g>
		<path d="M0.1,191.2c1.8-2.6,4.4-3.8,7.4-4.6c12.3-3.2,24.6-6.6,36.9-9.7c3.1-0.8,4.2-2,3.3-5.1c-0.2-0.6-0.4-1.4-0.2-2
			c3.1-10.6,7-20.8,14.2-29.4c0.6-0.7,1.5-1.3,2.3-1.5c4.6-0.9,5.7-4.3,6.5-8.3c1.2-5.4,2.8-10.8,4.4-16.2c1.7-5.7,5.3-8.5,11.1-8.2
			c2.1,0.1,2.8-0.6,3.2-2.3c2.1-7.8,4.1-15.7,6.3-23.5c0.5-1.7,0.2-3.1-0.6-4.6c-2.6-4.7-5-9.4-7.6-14c-1.3-2.4-1.7-4.7-1-7.3
			C89.5,42.8,92.5,31,96,19.3c2.5-8.5,8.4-13.9,17.2-15.2c8.9-1.3,16.2,1.9,21.3,9.5c3.7,5.5,4.3,11.6,2.6,18
			c-3,11.3-6.1,22.6-9.1,33.9c-0.7,2.8-2.2,4.7-4.6,6.2c-5.3,3.3-11.9,5.7-15.3,10.4c-3.4,4.7-3.7,11.8-5.3,17.8
			c-0.4,1.7-0.8,3.4-1.4,5c-1.1,3-1.2,4.9,2.3,6.9c4,2.2,5.6,6.6,4.3,11.4c-1.2,4.4-2.3,8.7-3.4,13.1c-0.4,1.5-0.9,2.7,1.4,3.2
			c1.9,0.4,3.1,1.9,3.6,3.9c0.9,6.4-0.6,8.2-7,8.3c-7.6,0.1-15.1-0.8-22.6-1.3c-1.7-0.1-3.4-0.2-5.2-0.3c-3.5-0.2-5.3,1.6-7.1,4.5
			c-6.3,10.2-7.7,20.4-3,31.7c2,4.9,3.1,10.2,4.2,15.4c0.9,5.9,3.1,10.8,8.8,13.8c2.9,1.6,5.5,3.7,8.1,5.8c2.7,2.1,5.2,2.1,8,0.2
			c15.2-10.2,30.5-20.4,45.7-30.6c4.1-2.7,4.2-3.4,3-8.3c-0.4-1.7-0.8-3.4-1.4-5c-1.6-5.9-3.3-11.8-4.6-17.7c-0.9-3.7-2.5-6-6.6-6
			c-1.7,0-3.4-0.5-4.9-1.3c-2.6-1.5-4.4-3.5-2.8-6.8c0.6-3,2.3-4.9,5.4-5c7-0.3,13.7,0.5,18,7c1.1,1.6,2.2,1.6,3.7,1.1
			c6.4-1.8,12.8-3.6,19.2-5.2c2.3-0.6,2.5-1.3,1.9-3.5c-5.6-20.5-11-41.1-16.4-61.6c-0.1-0.3-0.2-0.5-0.3-0.8
			c-1.3-5.2,0-8.5,3.7-9.5c3.7-1,6.6,1.3,8,6.4c4.3,16.2,8.6,32.3,12.9,48.5c1.3,4.8,2.7,9.5,3.8,14.2c0.5,2,1.4,2.3,3.1,1.8
			c9.9-2.7,19.7-5.4,29.6-7.9c2.9-0.7,2.1-2.4,1.6-4.1c-5.4-20.1-10.8-40.3-16.2-60.4c-0.3-1.3-0.8-2.6-1-3.9
			c-0.4-3.3,0.8-5.9,4.1-6.8c3.2-1,5.8,0.2,7.1,3.4c0.5,1.2,0.9,2.5,1.3,3.8c5.4,20.1,10.8,40.3,16.1,60.5c0.7,2.7,1.4,3.9,4.6,2.9
			c9-2.7,18.1-5.1,27.3-7.3c3.1-0.8,3.4-1.9,2.6-4.9c-6.1-22.3-12-44.7-17.9-67c-1.3-4.9,0.1-8.1,3.8-9c3.8-0.9,6.3,1,7.7,6
			c6.1,22.4,12.1,44.9,18,67.4c0.6,2.4,1.3,3.3,3.9,2.6c9.6-2.7,19.2-5.3,28.8-7.8c2.3-0.6,2.5-1.3,1.9-3.5
			c-5-18.5-9.9-37-14.8-55.4c-0.2-0.9-0.5-1.8-0.6-2.7c-0.5-3.5,0.5-6.1,4.1-7.2c3.4-1,6.2,0.6,7.3,4.3c2.2,7.7,4.2,15.4,6.3,23.1
			c3.1,11.5,6.3,23.1,9.3,34.7c0.6,2.4,1.3,3.2,3.7,2.1c1.2-0.5,2.6-0.6,3.8-1c3.8-1.3,6.8-0.3,8.8,3.2c1.6,4.3,0.4,7.2-3.9,8.9
			c-3.7,1.4-7.6,2.3-11.5,3.3c-51,13.6-102,27.4-153,41c-4.4,1.2-8.7,2.3-13.1,3.6c-2.3,0.7-2.8,1.9-2.3,4.1
			c1.7,7.8,1.6,7.8,9.3,5.7c34.4-9.2,68.8-18.5,103.3-27.7c40.3-10.8,80.7-21.6,121-32.5c4.8-1.3,4.8-1.4,3.5-6.3
			c-0.2-0.8-0.5-1.5-0.6-2.3c-0.5-2.8-2-3.3-4.6-2.7c-7.9,2-15.6,4.4-23.5,6.3c-1.4,0.3-2.8,0.8-4.3,1c-6.5,1.1-9.2-1.4-8.7-7.9
			c0.8-2.2,2.2-3.8,4.4-4.2c3.1-0.5,2.5-2.3,2-4.3c-4-15-8.1-30-12.1-45c-0.4-1.4-0.6-2.9-0.6-4.3c0-2.7,1.8-4.5,4.2-5.2
			c2.5-0.7,4.8,0.1,6.3,2.3c0.8,1.2,1.2,2.6,1.6,4c4,15,8.1,30,12,45.1c0.7,2.9,1.8,3.5,4.5,2.6c3.6-1.2,7.4-2.2,11.1-3
			c3.3-0.7,5-1.9,3.3-5.4c-0.3-0.7-0.5-1.5-0.6-2.3c-0.5-3.5,0.9-6,4.4-7.1c3-0.9,6,0.7,7.1,4.2c1.8,5.8,3.2,11.8,4.8,17.7
			c2.6,9.9,5.3,19.8,7.9,29.7c1.2,4.5-0.3,7.7-3.8,8.7c-3.5,0.9-6.7-1.1-7.5-5.7c-0.8-4.2-2.5-5-6.3-3.6c-3.5,1.3-7.1,2.1-10.8,2.9
			c-2.7,0.6-3.3,1.5-2.5,4.3c4.1,14.7,7.9,29.5,11.9,44.3c0.3,1,0.6,2.1,0.8,3.1c0.6,3.7-1.2,6.6-4.4,7.4c-2.9,0.7-6-1.1-7-4.5
			c-2-6.6-3.7-13.3-5.5-20c-2.4-9.1-4.9-18.2-7.2-27.4c-0.6-2.3-1.1-3.3-3.9-2.5c-9.5,2.8-19.1,5.4-28.8,7.8c-2.3,0.6-2.6,1.3-2,3.5
			c5.1,18.6,10,37.2,15,55.8c0.5,1.8,1,3.7,0.4,5.5c-0.8,2.7-2.7,4.2-5.6,4.2c-3.3,0.1-5.1-1.9-5.9-4.9c-2.1-7.4-4-14.9-6-22.3
			c-3.1-11.7-6.4-23.3-9.4-35c-0.6-2.5-1.4-2.9-3.8-2.2c-9.3,2.6-18.7,5.2-28,7.5c-2.8,0.7-3.4,1.6-2.6,4.5
			c6,22,11.9,44.1,17.8,66.2c0.3,1,0.6,2.1,0.7,3.1c0.5,3.5-1.3,6.3-4.3,7.1c-3.1,0.8-6.1-0.8-7.1-4.2c-2-6.6-3.7-13.3-5.5-20
			c-4.4-16.3-8.7-32.6-13-48.9c-0.7-2.9-1.7-3.7-4.7-2.8c-9,2.7-18.1,5-27.3,7.4c-2.7,0.7-3.4,1.6-2.6,4.6
			c5.7,20.6,11.1,41.3,16.6,62c0.5,2,1,3.9,0.1,5.8c-1.1,2.4-3.1,3.6-5.8,3.4c-3.3-0.2-4.9-2.4-5.6-5.3c-2.5-9.1-4.9-18.2-7.3-27.3
			c-3.2-11.9-6.5-23.9-9.5-35.8c-0.6-2.6-1.5-3.1-4-2.4c-9.4,2.7-18.9,5.2-28.4,7.7c-2.2,0.6-2.9,1.1-2.2,3.7
			c5.6,20.5,11,41.1,16.5,61.6c0.3,1,0.6,2.1,0.7,3.1c0.5,3.7-1.1,6.2-4.3,7c-3.1,0.8-6-0.7-7.1-4.2c-2-6.8-3.7-13.6-5.6-20.4
			c-3.9-14.6-7.9-29.2-11.7-43.9c-0.7-2.7-1.6-3-4-2.2c-6.1,1.8-12.3,3.4-18.4,4.9c-1.6,0.4-2.7,0.9-2.9,3
			c-0.4,5.6-3.6,9.6-8.1,12.6c-7.7,5.1-15.4,10.3-23.6,15.8c3.6,3.6,7.1,7,10.5,10.4c4.9,4.9,5.6,9.2,2.1,15
			c-0.9,1.6-0.6,2.3,0.5,3.3c5.9,5.8,11.7,11.6,17.5,17.5c1.1,1.2,2.4,1.5,3.9,1.5c5.4,0.1,10.9,0.5,16.4,0.6c2.7,0,4.8,1,6.7,2.9
			c8.2,8.3,16.6,16.5,24.8,24.9c9,9.2,9.1,22.6,0.5,31.1c-8.5,8.4-21.7,8.2-30.7-0.6c-8.4-8.2-16.6-16.6-24.9-24.8
			c-2.1-2.1-3-4.5-3.1-7.5c-0.1-6,1.2-12.7-1.1-17.8c-2.3-5.2-8.1-8.9-12.4-13.3c-1-1-2.1-2-3.1-3.1c-2.4-2.9-4.4-5.1-8.9-2.1
			c-3.9,2.6-8.2,0.7-11.6-2.6c-4.8-4.8-9.6-9.6-14.4-14.4c-1.3-1.3-2.4-2-4.5-1.5c-3.1,0.7-6.4,0.4-9.3-1.1c-1.9-1-2.7-0.4-2.5,1.7
			c0.1,0.9,0,1.9,0,2.8c0,52.4,0,104.8,0,157.1c0,1.5,0,2.9-0.1,4.4c-0.3,3.4-2.1,5.4-5.5,5.7c-3.3,0.3-5.6-1.8-6.2-5.4
			c-0.2-1.4-0.2-2.9-0.2-4.4c0-55.6,0-111.1,0.1-166.7c0-3.4-0.6-5.8-3.7-7.5c-3.1-1.7-5.4-4.4-6.4-7.9c-0.6-2.2-1.7-2.3-3.7-1.8
			c-12.8,3.5-25.6,6.9-38.4,10.4c-6.8,1.8-8.8,0.6-10.6-6.1c-2-7.3-4.1-14.5-6.2-21.8C0.1,193.9,0.1,192.5,0.1,191.2z"/>
		<path class="st0" d="M122.1,145.6c0.5,5,1.8,6.3,7.3,7c6.4,0.8,6.4,0.8,8.1,7c1.6,6,3.1,12,4.6,18c-1.2,2.5-3.8,3.3-5.9,4.5
			c-14.7,8.3-29.4,16.4-44.1,24.8c-7.9,4.5-17.9,2.7-24-4.5c-2.7-10.1-5.4-20.2-8.2-30.3c-0.4-1.6,0-2.8,0.6-4.2
			c2.3-5.1,4.7-10.1,6.9-15.2c1.2-2.8,3.1-4.1,6.2-3.9c9.4,0.7,18.8,1.3,28.2,1.7c6.3,0.3,7.9-1.3,7.9-7.3c0.7,1.2,1.2,2.4,3.1,2.3
			C115.8,145.3,118.9,145.5,122.1,145.6z"/>
		<path class="st1" d="M347.9,98.4c0.2,6.4,3,8.4,9.3,6.8c9.6-2.5,19.3-5,28.8-7.8c2.3-0.7,3-0.1,3.5,2c0.7,3.4,3,7.2,2,9.9
			c-1,2.6-5.8,2.3-8.9,3.2c-75.1,20.2-150.3,40.3-225.5,60.6c-3.1,0.8-3.9,0-4.5-2.7c-0.6-3.1-2.9-6.8-1.8-9.1
			c1.1-2.4,5.6-2.2,8.7-3c56.7-15.2,113.4-30.4,170.2-45.7c5.6-1.5,6.8-3.1,6.5-8.6c3.3,0.4,6.1-1.5,9.2-1.9
			C347.6,101.8,346.7,99.5,347.9,98.4z"/>
		<path class="st2" d="M68.1,202.4c2.8,1.4,5.7,2.8,8.5,4.4c5,3,9.9,2.3,14.7-0.4c16.9-9.6,33.9-19.1,50.8-28.7
			c0.7,2.5,1.6,5.1,2.2,7.6c0.8,3.2-1.6,4.5-3.7,5.9c-14.2,9.6-28.4,19.1-42.7,28.6c-8.1,5.4-7.2,6.4-16.1-0.3
			c-1.7-1.3-3.3-2.8-5.2-3.7C70.8,213.1,68.9,208.1,68.1,202.4z"/>
		<path class="st3" d="M160.4,283.4c-0.2-7.4-0.2-7.1,7-7.2c4.9,0,8.4,1.6,11.7,5.2c6.1,6.6,12.8,12.8,19,19.3
			c4.6,4.8,4.6,11,0.1,14.7c-3.8,3.1-8.8,3.2-12.7-0.5c-8.2-7.8-16.1-15.9-24-23.9C159.3,288.7,161.1,285.6,160.4,283.4z"/>
		<path class="st3" d="M116.5,15.9c5.6,0,10.2,4.6,9.3,10c-2.2,11.7-5.7,23.1-9,34.6c-0.9,3.1-4.6,3.7-7.1,5.4
			c-4.8,3.2-4.5,2.8-7.7-1.9c-3.4-5.1-3.6-9.9-1.7-15.6c2.7-8,4.4-16.4,6.7-24.5C108.5,18.6,111.8,15.9,116.5,15.9z"/>
		<path class="st1" d="M54.7,199.3c0.3,1.6-0.9,1.4-1.7,1.7c-11.4,3.1-22.7,6.1-34.1,9.3c-1.5,0.4-2.3,0.1-2.6-1.4
			c0-0.1-0.1-0.3-0.1-0.4c-3.6-10.6-3.6-10.6,7.1-13.5c8.4-2.3,16.9-4.5,25.3-6.9c2.3-0.6,3.3-0.4,3.7,2.1
			C52.9,193.3,53.9,196.3,54.7,199.3z"/>
		<path class="st4" d="M87.3,137.6c-6.1-0.2-6.1-0.2-4.5-6.3c1-3.6,1.9-7.2,2.8-10.8c0.4-1.5,0.9-2,2.8-1.6c7.9,1.8,7.9,1.7,5.9,9.4
			c-0.4,1.7-0.9,3.3-1.4,5C91.7,137.8,91.7,137.8,87.3,137.6z"/>
		<path class="st5" d="M119.9,228.7c0.5,0.4,1,0.8,1.5,1.3c5.9,5.8,5.9,5.8-0.4,11.3c-1,0.9-1.7,1.4-2.8,0.1
			c-2.4-2.6-4.9-5.2-7.3-7.7C113.5,231.4,115.8,228.3,119.9,228.7z"/>
		<path class="st6" d="M119.9,228.7c-3.5,0.8-5.6,4.2-9.1,4.9c-5.5-4.5-5.3-4.3,0-8.3c2.8-2.1,4.7-2,6.7,0.8
			C118.2,227,119.1,227.9,119.9,228.7z"/>
	</g>
</g>
</svg>
