<?xml version="1.0" encoding="utf-8"?>
<!-- Generator: Adobe Illustrator 24.1.2, SVG Export Plug-In . SVG Version: 6.00 Build 0)  -->
<svg version="1.1" id="Livello_1" xmlns="http://www.w3.org/2000/svg" xmlns:xlink="http://www.w3.org/1999/xlink" x="0px" y="0px"
	 viewBox="0 0 305.86 330.66" style="enable-background:new 0 0 305.86 330.66;" xml:space="preserve">
<style type="text/css">
	.st0{fill:#0D0F11;}
	.st1{fill:#66422F;}
	.st2{fill:#432818;}
</style>
<g>
	<g>
		<path class="st0" d="M76.08,251.9c-7.75,5.87-15.25,11.6-22.81,17.26c-1.4,1.05-1.46,2.56-1.77,3.96
			c-3.56,16.32-7.06,32.65-10.58,48.98c-1.3,6.05-5.67,9.44-10.77,8.36c-5.42-1.15-8.02-5.86-6.68-12.14
			c3.84-18.04,7.69-36.09,11.51-54.13c0.65-3.07,2.18-5.4,4.72-7.33c9.92-7.58,19.71-15.32,29.59-22.96
			c1.36-1.05,2.17-2.02,2.15-3.94c-0.11-9.62-0.12-19.24,0.08-28.86c0.06-2.73-0.9-3.06-3.36-3.28c-6.03-0.54-11,1.19-15.91,4.73
			c-8.7,6.26-17.78,11.99-26.74,17.89c-3.46,2.28-7.05,2.37-10.5-0.01c-3.09-2.13-4.34-5.9-3.38-9.61c0.59-2.29,1.99-3.99,3.92-5.28
			c11.92-7.97,23.88-15.9,35.77-23.91c3.18-2.14,6.69-1.54,10.14-1.71c3.32-0.16,7.74,1.45,9.65-0.68c1.63-1.83,0.5-6.17,0.51-9.39
			c0.03-6.5-0.24-13.01,0.11-19.48c0.2-3.62-1.12-5.52-4.08-7.39c-8.96-5.66-17.65-11.74-26.52-17.54
			c-2.86-1.87-4.69-4.21-5.64-7.55c-3.01-10.54-6.32-20.99-9.31-31.53c-0.6-2.1-1.58-3.12-3.57-3.69
			c-5.14-1.49-10.24-3.11-15.34-4.71c-5.61-1.76-8.33-6.33-6.85-11.45c1.43-4.97,6.51-7.48,12-5.73c7.59,2.43,15.12,5.02,22.68,7.54
			c3.48,1.16,5.52,3.59,6.55,7.09c3.22,11,6.57,21.95,9.76,32.96c0.59,2.03,1.55,3.49,3.35,4.64c4.94,3.15,9.81,6.41,14.65,9.72
			c1.85,1.27,2.53,1.56,3.23-1.23c2.82-11.28,9.73-19.23,20.69-23.34c2.17-0.81,2.71-1.88,2.72-4.05c0.01-7.86-0.48-15.74,1-23.54
			c1.51-7.96,4.48-15.3,9.22-21.86c1.37-1.9,1.64-3.1-0.54-4.37c-9.78-5.67-15.68-14.22-18.62-25.02c-0.68-2.51-2-4.83-2.84-7.31
			c-1.62-4.82,0.56-9.52,5.13-11.33c4.57-1.81,9.37,0.11,11.47,4.85c1.66,3.75,3.28,7.56,4.44,11.49c1.44,4.9,4.53,8.13,8.33,11.43
			c4.82,4.18,8.36,4.53,14.35,1.51c17.97-9.05,36.15-7.93,53.62,2.1c2.15,1.23,3.34,1.07,5.47-0.21c7.76-4.7,12.62-11.3,14.88-20.02
			c0.59-2.28,1.52-4.49,2.54-6.62c2.12-4.42,6.91-6.27,11.32-4.53c4.45,1.75,6.85,6.34,5.26,10.95c-2.51,7.29-5.24,14.52-8.07,21.7
			c-1.45,3.68-5.17,5.29-7.98,7.71c-2.08,1.79-5.39,3.1-6.08,5.29c-0.72,2.27,2.48,4.49,3.78,6.84c4.49,8.11,6.97,16.76,7.43,26.01
			c0.1,2.12,0.31,4.28,0.05,6.36c-0.92,7.33,0.16,12.49,8.4,15.99c9.12,3.88,13.62,12.77,15.65,23.07
			c6.47-4.3,12.64-8.39,18.8-12.49c1.15-0.77,1.24-2.09,1.59-3.27c3.24-10.86,6.54-21.7,9.7-32.58c1.21-4.18,3.55-6.85,7.86-8.14
			c6.92-2.06,13.7-4.56,20.56-6.81c5.92-1.94,10.98,0.17,12.62,5.16c1.68,5.11-0.95,9.74-6.86,11.81
			c-5.05,1.77-10.12,3.5-15.26,4.98c-2.57,0.74-3.8,2.13-4.52,4.69c-2.87,10.19-6.08,20.28-8.92,30.48
			c-1.01,3.63-2.99,6.15-6.09,8.11c-9.28,5.85-18.47,11.84-27.78,17.66c-1.79,1.12-2.46,2.33-2.43,4.46
			c0.12,9.49,0.14,18.99-0.01,28.48c-0.03,2.32,0.55,3.21,2.88,2.83c10.86-1.76,19.78,2.23,28.27,8.73
			c7.61,5.83,15.91,10.75,23.9,16.07c2.22,1.48,4.2,3.15,4.97,5.86c1.03,3.64-0.22,7.47-3.15,9.72c-2.98,2.29-6.99,2.51-10.5,0.21
			c-9.29-6.07-18.79-11.88-27.64-18.55c-5.2-3.93-10.58-4.29-16.47-4.1c-1.72,0.05-2.06,0.71-2.05,2.24
			c0.07,10.12,0.12,20.24,0.02,30.36c-0.02,1.91,1.17,2.59,2.31,3.48c9.65,7.52,19.27,15.08,29,22.49c2.96,2.25,4.57,4.98,5.32,8.62
			c3.69,17.82,7.6,35.6,11.36,53.4c1.19,5.65-1.77,10.21-7.04,11.24c-5.3,1.03-9.83-1.99-11.04-7.57
			c-3.56-16.32-7.1-32.64-10.53-48.99c-0.47-2.24-1.43-3.8-3.23-5.17c-6.07-4.6-12.13-9.22-18.01-14.05c-2.21-1.82-3-1.86-4.17,0.99
			c-9.59,23.43-26.48,39.27-50.49,47.16c-39.91,13.12-83.71-7.46-99.58-46.51C77.17,254.45,76.68,253.33,76.08,251.9z"/>
		<path class="st1" d="M143.6,170.71c0,17.86-0.02,35.72,0.01,53.58c0.01,4.53,2.35,7.77,6.36,9.11c3.72,1.25,7.27,0.05,9.88-3.35
			c1.62-2.11,1.76-4.56,1.75-7.1c-0.03-34.72-0.02-69.44-0.02-104.16c0-4.83,0-4.83,4.82-4.83c10.99,0,21.98-0.01,32.97,0
			c10.09,0.01,16.18,6.16,16.18,16.36c0,31.35,0.01,62.7,0,94.05c-0.01,30.08-19.98,55.23-49.2,62.01
			c-34.53,8.01-69.41-15.09-75.79-50.33c-0.61-3.39-1-6.87-0.99-10.4c0.08-31.97,0.04-63.95,0.05-95.92
			c0-9.43,6.28-15.75,15.64-15.77c11.61-0.02,23.23,0.09,34.84-0.07c2.85-0.04,3.56,0.85,3.54,3.61
			C143.54,135.24,143.6,152.98,143.6,170.71z"/>
		<path class="st2" d="M152.46,95.96c-11.73,0-23.46-0.1-35.18,0.07c-3.06,0.05-3.87-0.97-3.72-3.85
			c0.38-7.05-0.63-14.17,1.42-21.15c4.52-15.38,14.52-24.97,30.16-28.24c23.82-4.99,46.86,13.66,46.44,39.16
			c-0.06,3.62-0.13,7.24,0.03,10.85c0.12,2.48-0.79,3.21-3.22,3.19C176.42,95.91,164.44,95.96,152.46,95.96z"/>
	</g>
</g>
</svg>
