<?xml version="1.0" encoding="utf-8"?>
<!-- Generator: Adobe Illustrator 24.1.2, SVG Export Plug-In . SVG Version: 6.00 Build 0)  -->
<svg version="1.1" id="Livello_1" xmlns="http://www.w3.org/2000/svg" xmlns:xlink="http://www.w3.org/1999/xlink" x="0px" y="0px"
	 viewBox="0 0 95.85 70.68" style="enable-background:new 0 0 95.85 70.68;" xml:space="preserve">
<style type="text/css">
	.st0{fill:#7B5A1A;}
	.st1{fill:#6E5113;}
	.st2{fill:#A27528;}
	.st3{fill:#553C04;}
	.st4{fill:#543C05;}
	.st5{fill:#6F5114;}
	.st6{fill:#1C6642;}
	.st7{fill:#51603A;}
	.st8{fill:#6F5113;}
	.st9{fill:#105B3C;}
	.st10{fill:#334B21;}
	.st11{fill:#166443;}
	.st12{fill:#6C4E17;}
	.st13{fill:#475E2D;}
	.st14{fill:#464C23;}
	.st15{fill:#3B481D;}
	.st16{fill:#334928;}
</style>
<g>
	<g>
		<path class="st0" d="M70.47,70.68c-1.94-0.85-4.03-1.13-6.06-1.65c-3.42-0.88-6.89-1.6-10.31-2.47c-0.9-0.23-1.73-0.74-2.57-1.16
			c-4.15-2.07-8.29-4.16-12.43-6.25c-0.33-0.38-0.18-0.83-0.16-1.26c0.36-5.56,1.08-11.08,1.59-16.62
			c0.34-3.68,0.82-7.35,1.12-11.04c0.15-1.86,0.46-3.7,0.59-5.57c0.06-0.85,0.37-1.73-0.17-2.55c-0.36-0.62,0.12-0.67,0.51-0.71
			c0.59-0.06,1.05,0.3,1.54,0.57c2.19,1.21,4.28,2.61,6.62,3.56c0.4,0.16,0.8,0.63,1.25,0.03c0.16-0.21,0.42-0.04,0.44,0.16
			c0.1,0.95,1.04,1.39,1.32,2.23c0.11,0.47,0.1,0.95,0.1,1.43c-0.01,10.27,0.04,20.55-0.03,30.82c-0.01,1.37-0.1,2.74-0.21,3.55
			c0.12-1.89,0.35-4.32,0.66-6.74c0.29-2.21,0.66-4.41,0.81-6.63c0.04-0.66,0.12-1.38,0.88-1.71c0.36-0.1,0.73-0.13,1.11-0.07
			c2.61,0.48,5.27,0.59,7.89,0.97c2.23,0.32,4.51,0.33,6.68,1.01c1.71,0.52,1.64,0.52,1.5,2.31c-0.21,2.69-0.34,5.38-0.59,8.06
			c-0.29,3.11-0.28,6.25-0.73,9.35c-0.01,0.14-0.05,0.27-0.14,0.39C71.26,70.68,70.86,70.68,70.47,70.68z"/>
		<path class="st1" d="M95.85,35.5c-1.01,1.6-1.44,3.46-2.18,5.17c-0.32,0.74-0.62,1.49-0.94,2.23c-0.69-0.88-0.77-1.99-0.95-3
			c-0.58-3.18-1.32-6.31-1.98-9.47c-1.08-5.18-2.28-10.34-3.38-15.52c-0.09-0.43-0.2-0.85-0.2-1.3c0.24-1.62,1.19-2.99,1.72-4.5
			c0.09-0.26,0.33-0.44,0.65-0.42c0.97,3.36,1.95,6.71,2.92,10.07c1.36,4.71,2.71,9.42,4.06,14.14c0.05,0.17-0.01,0.42,0.28,0.44
			C95.85,34.07,95.85,34.79,95.85,35.5z"/>
		<path class="st2" d="M88.59,8.7c-0.88,1.51-1.5,3.13-2.08,4.77c-0.32,0.71-0.9,1.21-1.44,1.74c-1.44,1.44-2.88,2.88-4.32,4.31
			c-0.39,0.39-0.76,0.83-1.35,0.95c-4.13,0.11-8.25,0.41-12.37,0.36c-4.03,2.06-8.05,4.12-12.06,6.21
			c-0.49,0.25-0.94,0.62-1.54,0.55c-0.73-0.42-1.48-0.83-1.22-2.09c-0.12,1.27-0.31,1.02-1.14,0.58c-1.43-0.75-2.88-1.46-4.29-2.27
			c-1.06-0.61-2.2-1.09-3.2-1.82c-0.48-0.35-1.04-0.62-1.63-0.14c-0.4,0.52-1.03,0.58-1.6,0.69c-2.83,0.57-5.63,1.32-8.49,1.79
			c-2.09-0.14-3.83-1.25-5.67-2.06c-1.45-0.64-2.93-1.23-4.37-1.9c-0.81-0.38-1.56-0.79-2.19-1.4c-2.82-2.74-5.75-5.36-8.7-7.97
			c-0.53-0.47-1.11-0.94-1.07-1.77c0.51-1.44,1.64-2.47,2.43-3.72c0.51-0.73,1.16-1.35,1.66-2.08c0.75-0.8,1.85-0.76,2.78-1.13
			c1.94-0.77,3.92-1.45,5.92-2.04c1.47-0.44,3.02-0.24,4.51-0.08c2.3,0.25,4.61,0.15,6.91,0.35c2.61,0.23,5.24,0.21,7.86,0.32
			C47.2,1.08,52.47,1.42,57.75,1.6c3.33,0.11,6.67,0.29,10,0.44c4.56,0.2,9.11,0.42,13.62,1.19c0.55,0.09,0.95,0.39,1.36,0.7
			C84.5,5.27,86.25,6.63,88,7.99C88.24,8.18,88.53,8.35,88.59,8.7z"/>
		<path class="st0" d="M10.07,9.18c0.03,0.98,0.85,1.41,1.44,1.95c2.24,2.07,4.65,3.98,6.77,6.17c1.71,1.76,3.71,2.89,5.91,3.82
			c1.97,0.83,3.91,1.71,5.88,2.56c0.51,0.22,1.04,0.4,1.61,0.37c0.06,0.19-0.03,0.33-0.14,0.47c-0.32,0.41-0.81,0.62-1.2,0.94
			c-1.26,1.02-1.24,2.38,0.04,3.36c0.31,0.23,0.71,0.37,0.82,0.8c0.34,2-0.11,3.97-0.21,5.94c-0.17,3.41-0.42,6.82-0.66,10.22
			c-0.3,4.24-0.44,8.49-0.88,12.72c-0.11,1.11,0.05,2.23-0.2,3.33c-0.51,0.39-0.74-0.19-1.1-0.32c-0.61-0.23-0.99-0.91-1.74-0.86
			c-0.31-0.61-0.15-1.25-0.09-1.87c0.37-4.38,0.56-8.76,0.73-13.15c0.01-0.2,0-0.39-0.12-0.56c-1.75-1.14-3.74-1.74-5.68-2.42
			c-1.39-0.49-2.72-1.07-4-1.8c-0.32-0.43-0.22-0.9-0.13-1.38c1.02-5.39,1.98-10.79,2.82-16.2c0.1-0.63,0.3-1.23,0.43-1.83
			c-3.81,6.57-7.55,13.22-11.35,19.83c-0.05,0.11-0.11,0.21-0.18,0.31c-1.69,2.93-3.31,5.91-5.15,8.75c-0.21,0.32-0.28,1.05-1,0.61
			c-0.31-0.39-0.21-0.83-0.15-1.26c0.96-6.97,1.59-13.98,2.59-20.95c0.64-4.43,1.09-8.89,1.72-13.33c0.02-0.16,0.03-0.31-0.04-0.46
			c0.33-1.92,0.62-3.84,1.13-5.72c0.09-0.33,0.17-0.59,0.48-0.75C8.94,8.76,9.56,8.83,10.07,9.18z"/>
		<path class="st3" d="M29.25,61.83c-0.48-1.12-0.33-2.32-0.15-3.41c0.24-1.5,0.19-3,0.34-4.49c0.34-3.26,0.34-6.56,0.56-9.84
			c0.27-3.98,0.63-7.96,0.92-11.93c0.07-0.95,0.01-1.91,0.01-2.86c-0.38-1.73-0.29-3.41,0.5-5.03c0.08-0.07,0.17-0.15,0.25-0.22
			c3.43-0.73,6.85-1.46,10.28-2.18c0.64-0.01,0.95,0.02,0.83,0.93c-0.38,2.74-0.54,5.51-0.82,8.27c-0.27,2.59-0.68,5.18-0.87,7.78
			c-0.14,1.86-0.36,3.71-0.55,5.56c-0.3,2.87-0.55,5.75-0.89,8.61c-0.24,2.04-0.26,4.11-0.55,6.15
			C35.81,60.04,32.53,60.93,29.25,61.83z"/>
		<path class="st0" d="M21.37,64.87c-2.96-2.02-5.92-4.04-8.88-6.06c-1.78-1.22-3.52-2.5-5.34-3.66c-1.09-0.7-2.09-1.34-1.6-2.87
			c0.03-1.34,0.58-2.56,0.92-3.82c0.54-2,1.12-3.98,1.76-5.96c0.1-0.3,0.24-0.59,0.45-0.84c0.86-0.61,1.58,0.23,2.39,0.21
			c0.99,0.03,1.83,0.52,2.68,0.92c2.12,1,4.37,1.66,6.51,2.62c1.28,0.58,2.73,0.77,3.9,1.65c0.23,1.37-0.13,2.69-0.32,4.02
			c-0.57,3.94-1.25,7.87-1.68,11.83C22.05,63.62,21.94,64.34,21.37,64.87z"/>
		<path class="st4" d="M21.37,64.87c0.59-1.97,0.61-4.04,0.94-6.05c0.49-2.95,0.87-5.91,1.3-8.87c0.14-0.97,0.26-1.94,0.39-2.92
			c0.82-1.09,2.07-1.62,3.11-2.42c0.27,0.15,0.42,0.42,0.4,0.69c-0.19,3.15-0.41,6.31-0.6,9.46c-0.09,1.54-0.01,3.09-0.26,4.62
			c-0.07,0.43-0.03,0.87-0.24,1.27C24.76,62.09,23.29,63.75,21.37,64.87z"/>
		<path class="st5" d="M6.8,14.94c0.57,1.38-0.08,2.73-0.13,4.09c-0.07,1.77-0.41,3.53-0.63,5.29c-0.33,2.62-0.67,5.25-1.01,7.87
			c-0.3,2.39-0.62,4.78-0.91,7.17C3.7,42.89,3.3,46.42,2.84,49.94c-0.05,0.41-0.13,0.77,0.09,1.13c0.3,0.39,0.03,0.63-0.24,0.87
			c-0.94-0.56-1.54-1.48-2.34-2.18c-0.5-0.43-0.34-1.05-0.23-1.57c0.99-4.92,2.08-9.83,3.02-14.76c0.92-4.84,1.79-9.69,2.88-14.5
			C6.3,17.61,6.5,16.26,6.8,14.94z"/>
		<path class="st3" d="M2.68,51.93c0.08-0.29,0.16-0.58,0.24-0.87c1.82-3.04,3.72-6.03,5.33-9.19c0.08-0.16,0.28-0.27,0.42-0.4
			c0.05,0.05,0.07,0.1,0.06,0.15C8.72,41.68,8.7,41.7,8.68,41.7c-0.9,3.29-1.8,6.59-2.71,9.88c-0.07,0.25-0.28,0.46-0.43,0.69
			C4.59,52.16,3.64,52.05,2.68,51.93z"/>
		<path class="st6" d="M10.07,9.18C9.39,9.22,8.68,9.37,8.41,8.47c1.45-1.11,2.53-2.63,4.09-3.62c0.2,0.25,0.15,0.5,0.01,0.76
			C11.7,6.79,10.88,7.99,10.07,9.18z"/>
		<path class="st7" d="M12.51,5.6c0-0.25-0.01-0.5-0.01-0.76c0.41-0.54,0.88-1.03,1.45-1.41C13.71,4.32,13.04,4.92,12.51,5.6z"/>
		<path class="st8" d="M66.63,20.67c0.28-0.33,0.66-0.22,1-0.23c4.05-0.09,8.11-0.17,12.16-0.26c0.67,1.25,0.44,2.63,0.58,3.95
			c0.52,4.94,0.87,9.9,1.1,14.86c0.23,4.93,1.46,9.66,2.15,14.49c0.07,0.48,0.12,0.94,0.04,1.42c-0.01,0.2-0.1,0.43-0.03,0.59
			c0.76,1.76-0.38,2.75-1.44,3.85c-3.55,3.67-7.06,7.39-10.59,11.08c-0.3-0.94,0.02-1.88,0.14-2.77c0.26-1.93,0.16-3.86,0.37-5.79
			c0.36-3.29,0.47-6.6,0.83-9.89c0.14-1.26-0.94-0.65-1.28-1.1c2.34-0.55,3.41-2.66,5.03-4.1c0.95-0.84,1.88-1.71,2.78-2.61
			c0.28-0.28,0.63-0.48,0.78-0.88c-0.37-0.42-0.83-0.25-1.24-0.26c-2.47-0.02-4.94-0.01-7.41-0.01c-0.56,0-1.12,0.04-1.65-0.18
			c-0.58-0.52-1.51-0.04-2.04-0.72c-0.17-0.33-0.2-0.69-0.2-1.05c0-4.34-0.44-8.67-0.53-13.01C67.14,25.59,66.73,23.14,66.63,20.67z
			"/>
		<path class="st3" d="M66.63,20.67c0.41,0.05,0.49,0.33,0.48,0.68c-0.08,3.17,0.5,6.3,0.54,9.47c0.04,3.79,0.44,7.58,0.43,11.38
			c-0.23,0.47-0.61,0.81-1.01,1.12c-1.1,0.35-1.84,1.38-3.02,1.57c-0.92,0.27-1.94,0.34-2.59,1.2c-0.37,0.25-0.73,0.52-1.17,0.65
			c-0.62,0.03-1.12,0.34-1.59,0.71c-0.08,0.07-0.18,0.12-0.27,0.17c-0.33,0.12-0.72,0.11-1,0.36c-0.08,0.06-0.17,0.11-0.27,0.15
			c-0.47,0.1-0.75,0.46-1.07,0.76c-0.75,0.19-0.62,0.92-0.66,1.37c-0.3,3.27-0.74,6.51-1.23,9.76c-0.25,1.63-0.38,3.28-0.74,4.91
			c0-0.47,0-0.94,0-1.4c-0.01-11.98-0.02-23.96-0.03-35.94c2.12-1.12,4.24-2.25,6.36-3.37C62.07,23.03,64.35,21.85,66.63,20.67z"/>
		<path class="st9" d="M60.17,46.51c0.45-0.04,0.68-0.61,1.19-0.49c0.79-0.64,1.84-0.8,2.65-1.41c0.85-0.03,1.34-0.75,2.02-1.11
			c0.37-0.2,0.69-0.32,1.08-0.34c0.86-0.78,1.82-0.96,2.89-0.49c3.34,0.01,6.69,0.01,10.03,0.04c0.29,0,0.71-0.17,0.85,0.2
			c0.12,0.32-0.2,0.56-0.43,0.78c-2.04,2.04-4.38,3.82-6.1,6.15c-0.79,1.07-1.71,0.93-2.7,1.03c-2.97-0.4-5.95-0.71-8.91-1.14
			c-1.89-0.27-3.9,0.03-5.7-0.83c-0.31-0.42-0.01-0.68,0.24-0.96l0,0c0.31-0.38,0.89-0.08,1.2-0.48l0,0
			C59.06,47.18,59.69,46.97,60.17,46.51z"/>
		<path class="st10" d="M57.29,47.94c-0.08,0.32-0.16,0.64-0.24,0.96c-0.32,0-0.64-0.01-0.96-0.01
			C56.17,48.17,56.56,47.84,57.29,47.94z"/>
		<path class="st3" d="M83.66,54.9c-0.68-1.78-0.78-3.69-1.14-5.54c-0.31-1.58-0.8-3.14-0.92-4.77c-0.08-1.06-0.26-2.12-0.35-3.18
			c-0.33-4.35-0.71-8.69-0.92-13.04c-0.13-2.73-0.6-5.45-0.53-8.19c2.18-2.29,4.35-4.59,6.72-6.7c0.83,3.81,1.66,7.62,2.49,11.43
			c1,4.58,2.1,9.15,2.93,13.76c0.26,1.41,0.89,2.77,0.81,4.24C89.78,46.96,86.84,51.02,83.66,54.9z"/>
		<path class="st3" d="M8.68,41.26c3.95-6.93,7.89-13.85,11.82-20.76c0.39,0.11,0.35,0.32,0.31,0.51c-1.12,5.3-2,10.63-2.82,15.98
			c-0.19,1.25-0.69,2.44-0.7,3.73c-0.12,0.18-0.29,0.32-0.48,0.31c-2.23-0.1-4.4,0.61-6.64,0.5C9.68,41.41,9.13,41.61,8.68,41.26z"
			/>
		<path class="st11" d="M10.11,41.26c2.4-0.13,4.76-0.71,7.19-0.54c1.85,0.7,3.66,1.53,5.55,2.16c1.45,0.48,2.84,1.14,4.26,1.72
			c-0.71,1.23-2.05,1.65-3.11,2.42c-1.98-0.64-3.9-1.45-5.86-2.13c-2.38-0.83-4.58-2.14-7.06-2.7
			C10.73,41.9,10.02,41.99,10.11,41.26z"/>
		<path class="st12" d="M31.43,24.26c-0.17,1.68-0.33,3.35-0.5,5.03c-0.91-0.05-1.36-0.63-1.67-1.41c-0.36-0.9-0.25-1.69,0.51-2.33
			C30.31,25.1,30.88,24.69,31.43,24.26z"/>
		<path class="st13" d="M10.11,41.26c0.32,0.31,0.64,0.62,0.96,0.94c-0.85,0.1-1.51-0.75-2.39-0.49c-0.01-0.07-0.01-0.15-0.01-0.22
			c0-0.07,0-0.15,0.01-0.22C9.16,41.26,9.64,41.26,10.11,41.26z"/>
		<path class="st14" d="M70,42.66c-1-0.04-1.97,0.04-2.89,0.49c0.14-0.51,0.46-0.82,0.97-0.96C68.71,42.4,69.54,41.76,70,42.66z"/>
		<path class="st15" d="M64.01,44.61c-0.68,0.85-1.57,1.32-2.65,1.41C61.73,44.59,63.1,45.03,64.01,44.61z"/>
		<path class="st16" d="M60.17,46.51c-0.24,0.88-0.9,1.01-1.68,0.95C58.84,46.78,59.4,46.47,60.17,46.51z"/>
		<path class="st10" d="M58.49,47.46c-0.16,0.77-0.77,0.38-1.2,0.48C57.45,47.18,58.07,47.57,58.49,47.46z"/>
	</g>
</g>
</svg>
