<?xml version="1.0" encoding="utf-8"?>
<!-- Generator: Adobe Illustrator 24.1.2, SVG Export Plug-In . SVG Version: 6.00 Build 0)  -->
<svg version="1.1" id="Livello_1" xmlns="http://www.w3.org/2000/svg" xmlns:xlink="http://www.w3.org/1999/xlink" x="0px" y="0px"
	 viewBox="0 0 409.17 409.17" style="enable-background:new 0 0 409.17 409.17;" xml:space="preserve">
<style type="text/css">
	.st0{fill:#434E53;}
	.st1{fill:#576065;}
	.st2{fill:#323E43;}
	.st3{fill:#4F595E;}
	.st4{fill:#3B474C;}
	.st5{fill:#3C484D;}
	.st6{fill:#4E585D;}
	.st7{fill:#454F55;}
	.st8{fill:#B2CDE4;}
	.st9{fill:#BDDEFA;}
	.st10{fill:#505B60;}
	.st11{fill:#3C474D;}
	.st12{fill:#444F55;}
</style>
<g>
	<g>
		<path class="st0" d="M183.36,408.45c-14.43-0.73-28.8-1.89-42.98-4.86c-1.04-1.25-1.12-2.71-0.52-4.07
			c2.05-4.66,3.75-9.5,6.52-13.82c0.85-1.33,1.94-2.48,3.62-2.82c7.43,0.19,14.75,1.55,22.16,2.09c16.54,1.19,33.06,2.01,49.64,0.96
			c0.4-0.03,0.79,0.04,1.18,0.09c2.4,0.77,1.59,2.36,0.83,3.76c-2.4,4.4-4.02,9.16-6.45,13.54c-0.84,1.51-1.7,3.06-0.3,4.74
			c0.18,0.37,0.14,0.72-0.11,1.05c-8.5,0-17.01,0-25.51,0C188.81,408.08,186.01,409.2,183.36,408.45z"/>
		<path class="st1" d="M74.94,382.35c-9.71-5.45-17.91-12.46-22.16-23.05c-3.14-7.83-2.66-15.88,1.77-22.99
			c6.31-10.11,10.21-21.24,14.82-32.07c42.08-98.77,84.02-197.59,125.96-296.41c1.7-4,4.03-6.87,8.68-6.94
			c4.83-0.07,7.32,2.79,9.05,6.98c5.96,14.45,12.07,28.83,18.12,43.23c-3.21,3.92-5.09,8.5-6.68,13.24
			c-0.4,1.18-0.31,2.71-1.99,3.06c-2.34-0.62-2.66-2.79-3.39-4.57c-4.39-10.69-9.1-21.25-13.59-31.9c-0.25-0.58-0.36-1.3-1.55-1.64
			c-1.92,3.79-3.35,7.88-5.05,11.84c-21.11,49.34-42.05,98.76-63.04,148.14c-19.02,44.74-38.12,89.45-56.94,134.28
			c-0.72,1.72-1.6,3.36-2.34,5.06c-1.76,4.14-3.13,8.49-5.28,12.42c-2.81,5.14-1.06,9.12,2.29,12.98c1.84,2.12,4.23,3.6,6.3,5.45
			c1.06,0.94,2.51,1.61,2.54,3.34C78.27,368.68,74.49,374.7,74.94,382.35z"/>
		<path class="st2" d="M332.73,290.23c5.25,12.15,10.5,24.29,15.73,36.45c0.89,2.07,1.86,4.08,3.15,5.95
			c8.7,12.65,7.36,26.99-3.25,38.12c-8.43,8.84-18.79,14.63-29.88,19.25c-10.03,4.18-20.31,7.67-31.05,9.66
			c-4.09,0.19-4.92-0.85-3.22-4.5c2.86-6.12,6.02-12.11,8-18.6c1.24-1.59,3.12-1.94,4.88-2.46c9.08-2.67,17.72-6.4,26.06-10.85
			c5.23-2.8,9.55-6.7,13.37-11.18c2.52-2.95,3.41-6.04,1.45-9.86c-1.99-3.89-3.47-8.04-5.3-12.02c-2.61-6.5-5.47-12.88-8.12-19.36
			c-0.94-2.3-2.34-4.47-2.23-7.11c1.39-4.08,3.5-7.85,5.33-11.73C328.7,289.79,330.34,288.78,332.73,290.23z"/>
		<path class="st3" d="M74.94,382.35c-1.81-5.88,2.33-16.84,7.36-19.51c1.51-0.44,2.91,0,4.2,0.71
			c18.17,9.91,37.94,14.7,58.12,18.19c1.67,0.29,3.47,0.35,4.57,1.98c-4.33,6.01-7.72,12.43-8.81,19.87
			c-14.87-1.84-29.25-5.74-43.32-10.77C89.37,390.06,81.78,386.97,74.94,382.35z"/>
		<path class="st4" d="M292.7,376.58c0.3,4.79-3.05,8.3-4.42,12.51c-0.73,2.23-1.95,4.34-3.16,6.38c-1.68,2.85-0.9,4.14,2.32,4.18
			c-10.29,3.13-20.92,4.6-31.52,6.05c-10.24,1.4-20.54,2.49-30.9,2.74c-2.65-0.02-5.3-0.05-7.94-0.07
			c-2.68,0.01-2.74-1.23-1.73-3.28c2.98-6.02,5.87-12.1,8.79-18.15c1.02-1.37,2.55-1.21,3.98-1.3c19.72-1.27,39.26-3.71,58.44-8.67
			C288.54,376.46,290.57,375.41,292.7,376.58z"/>
		<path class="st5" d="M332.73,290.23c-2.34-0.16-3.72,0.59-4.63,3.1c-1.33,3.66-3.38,7.05-5.13,10.56c-2.4-0.34-2.44-2.6-3.09-4.13
			c-6.57-15.32-13.11-30.65-19.61-45.99c-3.3-7.79-6.66-15.57-9.94-23.37c-0.97-2.3-2.29-4.5-2.32-7.11
			c1.39-4.39,3.31-8.57,5.53-12.59c1.02-1.85,2.32-3.35,4.68-1.71c11.07,25.84,22.14,51.69,33.19,77.54
			C331.92,287.72,332.29,288.99,332.73,290.23z"/>
		<path class="st6" d="M222.25,67.11c1.99-4.16,2.99-8.74,5.39-12.74c0.88-1.46,1.52-3.09,3.54-3.27
			c10.86,25.37,21.72,50.73,32.57,76.11c0.62,1.45,1.12,2.95,1.67,4.43c-3.67,4.28-6.6,8.92-7.09,14.74
			c-0.09,1.05-0.12,2.23-1.69,2.16c-1.53-0.82-2.09-2.35-2.71-3.8c-10.45-24.48-20.72-49.03-31.22-73.48
			C222.14,69.93,221.37,68.6,222.25,67.11z"/>
		<path class="st7" d="M256.87,148.37c-0.04-5.36,2.83-9.69,5.05-14.25c0.74-1.52,1.57-2.73,3.51-2.49
			c0.53,3.52,2.54,6.47,3.96,9.59c10.09,22.11,19.04,44.7,28.75,66.96c0.1,0.23,0.06,0.52,0.08,0.78c-2-0.31-3.17,0.55-3.98,2.41
			c-1.75,4-3.67,7.93-5.52,11.88c-2.07,0.1-2.09-1.76-2.59-2.93c-9.66-22.62-19.35-45.22-28.85-67.91
			C256.75,151.14,255.7,149.85,256.87,148.37z"/>
		<path class="st8" d="M292.7,376.58c-22.46,6.09-45.33,9.43-68.57,10.35c-15.52,1.23-31.05,0.64-46.54-0.3
			c-9.49-0.57-18.93-1.92-28.4-2.92c-16.78-2.97-33.44-6.39-49.37-12.71c-6.01-2.39-11.64-5.53-17.52-8.16
			c-2.97-2.55-6.08-4.96-8.89-7.68c-4.3-4.18-6.38-8.81-2.92-14.78c2.15-3.72,3.58-7.85,5.34-11.8
			c6.52-6.19,14.29-10.29,22.57-13.56c0.86-0.34,1.74-0.64,2.69-0.34c3.72,3.91,7.99,4.33,13.03,2.69
			c7.54-2.46,15.32-4.06,23.13-5.46c5.3-0.95,9.69-2.84,10.49-9c0.07-0.53,0.52-0.9,0.98-1.2c10.08-2.04,20.25-3.22,30.55-3.16
			c0.48,0.23,1.01,0.51,1.19,1c2.18,5.78,6.74,6.62,12.21,6.42c7.53-0.28,15.1-0.41,22.62,0.03c6.48,0.39,11.12-1.45,13.43-7.79
			c6.81,0.26,13.59,0.96,20.36,1.74c3.79,0.43,7.55,1.08,11.37,1.18c1.25,0.67,1.28,1.94,1.4,3.1c0.41,4.05,2.93,6.13,6.61,6.94
			c9.84,2.15,19.67,4.33,29.35,7.11c3.23,0.93,6-0.15,8.16-2.75c0.67-0.81,1.11-1.83,2.15-2.28c5.56,3.59,11.78,5.97,17.37,9.52
			c3.15,2,5.96,4.34,8.19,7.34c1.83,4.21,3.42,8.55,5.57,12.6c1.77,3.35,0.91,6.03-0.97,8.76c-5.38,7.81-13.38,12.16-21.6,16.17
			C308.98,371.39,300.86,374.05,292.7,376.58z"/>
		<path class="st9" d="M260.61,301.44c-3.61,2.17-7.22,0-10.78-0.21c-4.95-0.29-9.85-1.43-14.84-1.33
			c-2.21,0.04-4.16-0.44-5.97-1.64c-0.88-0.45-1.31-1.3-1.76-2.1c-1.8-3.21-4.6-4.66-8.2-4.68c-9.82-0.07-19.63-0.07-29.45,0
			c-3.74,0.03-6.71,1.42-8.23,5.11c-0.41,0.98-0.87,1.95-1.88,2.49c-10.35,1.06-20.71,2.12-31.06,3.18
			c-0.26-0.06-0.61-0.1-0.72-0.29c-3.55-6.13-8.75-5.86-14.8-4.48c-7.74,1.78-15.51,3.41-23.14,5.64c-6.9,2.01-7.88,3.32-8.45,10.43
			c-0.04,0.54-0.24,1.02-0.59,1.44c-8.59,3.49-16.83,7.58-23.89,13.73c-0.35,0.31-0.71,0.23-1.01-0.14
			c9.15-21.7,18.26-43.41,27.46-65.08c32.83-77.36,65.69-154.7,98.58-232.04c0.71-1.66,1.11-3.54,2.76-5.11
			c5.92,13.71,11.77,27.23,17.62,40.76c9.24,21.91,18.47,43.82,27.74,65.71c2.21,5.22,4.58,10.37,6.88,15.55
			c6.52,15.55,13.01,31.12,19.59,46.64c4.01,9.45,8.17,18.83,12.26,28.25c5.48,13.11,10.89,26.25,16.45,39.33
			c5.86,13.8,11.86,27.53,17.8,41.3c3.57,8.74,7.14,17.48,10.71,26.22c-7.05-6.01-15.08-10.42-23.43-14.29
			c-1.08-0.5-1.55-1.36-1.66-2.48c-0.9-0.76-0.9-1.87-1.11-2.89c-0.66-3.12-2.53-5.16-5.53-6.19c-10.4-3.58-21.18-5.66-31.93-7.82
			c-2.37-0.48-4.36,0.64-6.1,2.24C262.86,299.65,262.09,300.97,260.61,301.44z"/>
		<path class="st10" d="M100.73,314.98c-1.33-7.55,0.5-10.53,7.73-12.61c9.03-2.59,18.15-4.78,27.39-6.47
			c7.12-1.3,9.52-0.09,12.58,6.35c-0.37,6.31-2.31,8.91-8.41,10.12c-9.43,1.88-18.82,3.92-28.03,6.67
			C107.11,320.5,103.5,319.06,100.73,314.98z"/>
		<path class="st11" d="M260.61,301.44c2.67-5.36,5.4-6.74,11.19-5.69c9.66,1.75,19.19,4.04,28.63,6.72
			c6.25,1.78,8.2,4.39,8.15,10.86c-3.17,6.16-6.1,7.53-12.89,5.56c-8.77-2.55-17.63-4.61-26.59-6.35
			C262.41,311.23,260.35,308.46,260.61,301.44z"/>
		<path class="st12" d="M179.49,299.07c1.91-7.19,3.87-8.77,11.36-8.81c9.37-0.06,18.75-0.06,28.12,0.01
			c6.02,0.04,8.54,2.13,10.04,7.99c-0.83,6.28-3.66,8.86-9.88,8.88c-9.5,0.02-19.01-0.03-28.51-0.02
			C183.43,307.11,181.75,305.91,179.49,299.07z"/>
	</g>
</g>
</svg>
