<?xml version="1.0" encoding="utf-8"?>
<!-- Generator: Adobe Illustrator 24.1.2, SVG Export Plug-In . SVG Version: 6.00 Build 0)  -->
<svg version="1.1" id="Livello_1" xmlns="http://www.w3.org/2000/svg" xmlns:xlink="http://www.w3.org/1999/xlink" x="0px" y="0px"
	 viewBox="0 0 384 384" style="enable-background:new 0 0 384 384;" xml:space="preserve">
<style type="text/css">
	.st0{fill:#BB94E1;}
	.st1{fill:#544F57;}
	.st2{fill:#9C66D4;}
	.st3{fill:#F5F8F8;}
	.st4{fill:#665E66;}
	.st5{fill:#C5CFD9;}
	.st6{fill:#F4F7F7;}
	.st7{fill:#D9E3E9;}
	.st8{fill:#5F5860;}
	.st9{fill:#5F585F;}
	.st10{fill:#D8E2E8;}
	.st11{fill:#D9E2E8;}
	.st12{fill:#655D65;}
</style>
<g>
	<g>
		<path d="M324.1,150.6c-1.1,3-3.4,4-6.5,4c-5.3-0.1-10.5,0.1-15.7-0.1c-2,0-3.1,0.4-3.9,2.4c-3.5,8.7-3.6,8.7,4.7,13.1
			c14.8,7.9,29.6,15.9,44.5,23.8c10.1,5.4,13.9,13.6,11.4,25c-7.2,33.5-14.5,67-21.7,100.5c-1,4.8-2.6,6-7.4,6c-9.2,0-18.5,0-27.7,0
			c-5.5,0-7.6-2.8-6.5-8.2c6.5-30,12.9-59.9,19.5-89.9c0.6-2.8,0.1-4.1-2.5-5.5c-10.7-5.5-21.3-11.4-32-17.1c-1.3-0.7-2.4-1.6-3.9,0
			c-7.4,8.2-16.9,11.7-27.8,11.3c-0.4,0-0.9,0-1.4,0.1c5.3,13.3,3.7,27,2.5,40.4c-1,11.9-11.4,20-23.3,20.1c-23,0.1-46,0.1-68.9,0
			c-13.1-0.1-23.5-10.4-23.8-23.5c-0.2-8.2-0.1-16.5,0-24.7c0-4.2,1.4-8.1,3.5-12.1c-3.5-0.3-6.8-0.3-10-0.8
			c-7.5-1.2-13.9-4.7-19.1-10.3c-1.3-1.5-2.3-1.6-4.1-0.7c-10.9,6-21.9,11.9-32.9,17.6c-2.2,1.1-2.3,2.4-1.9,4.4
			c4.6,21.2,9.2,42.4,13.8,63.6c2,9.1,3.9,18.3,5.9,27.4c1,4.7-1.3,7.7-6,7.7c-9.7,0.1-19.5,0-29.2,0c-3.7,0-5.7-1.8-6.5-5.4
			C39.8,285.5,32.3,251.3,25,217c-2-9.4,2.1-18.1,10.6-22.8c5.2-2.9,10.5-5.6,15.8-8.5c3.3-1.8,6.2-1.5,8.7,1.4
			c2.2,3,2.1,4.1-0.9,7.8c-3.4,2.8-7.5,4.4-11.3,6.5c-1.6,0.7-3,1.8-4.5,2.6c-6,3.5-7.1,5.7-5.7,12.6c3.7,17.8,7.6,35.6,11.5,53.4
			c0.6,2.9,1.2,5.9,1.9,8.8c1.2,5.3,1.2,5.3,6.6,5.4c2.8,0,5.5,0,8.2,0.1c2.6,0.1,3.2-0.9,2.7-3.4c-1.9-8.7-3.7-17.3-5.6-26
			c-2.3-10.4-4.4-20.8-6.7-31.1c-1.2-5.3-0.4-7.3,4.3-9.9c11.5-6.5,23.3-12.5,34.9-18.9c3.9-2.2,4-2.1,2.3-6.4
			c-1.1-2.7-2.3-5.3-3.2-8c-0.9-2.8-2.3-3.2-4.7-1.7c-4.3,2.6-8.7,5-13.4,6.7c-2.9,0.3-5.5,0.2-6.8-3.1c-0.7-5.7-0.3-6.5,5-9.3
			c4.2-2.2,8.3-4.6,12.5-6.6c1.9-0.9,2-1.9,1.3-3.7c-3.4-8.7-3.3-8.7-12.7-8.7c-16.7,0-33.4,0-50.1,0c-15.2,0-19.9-3-25.6-16.6
			c0-3,0-6,0-9c3.4-11.3,10.7-16.7,22.9-16.8c4.1,0,8.2-0.1,12.3,0c3,0.1,4.3-0.9,4.3-4.1c0-6.4-0.1-6.6-6.3-6.6
			c-5.1,0-10.2,0-15.3,0C7.6,101,2.5,97.1,0.2,87.3c0-2.3,0-4.5,0-6.8C2,71,8,66.1,18,65.9c5.9-0.1,11.7-0.1,17.6,0
			c2.5,0,3.8-0.7,4.6-3.2C43,54.9,49.4,50.1,57.7,50c8.1-0.2,14.7,4.3,17.7,12.5c1.2,3.3,3,4.1,6.1,4c5.9-0.2,11.7-0.2,17.6,0
			c10.9,0.4,18,8.1,17.5,18.8c-0.4,8.9-7.4,16-16.4,16.3c-6.2,0.2-12.5,0-18.7,0.1c-4.2,0-4.5,0.4-4.6,4.5c0,0.3,0,0.5,0,0.8
			c0,5.1,0.2,5.3,5.2,5.3c10.9,0,21.7,0,32.6,0c0.3,0,0.5,0,0.8,0c5.7-0.1,8.2-2,9.5-7.6c1.4-5.8,2.2-11.8,3.4-17.7
			c1-4.9,3.1-9.2,6.9-12.6c4.1-3.6,8.7-5.7,14.2-5.7c28.4,0,56.7,0,85.1,0c9.6,0,17.9,6.3,20.5,15.6c1.5,5.4,2.2,11,3.3,16.5
			c0.4,1.8,0.6,3.7,1.3,5.5c1.4,3.5,3.9,5.8,7.9,5.8c12,0.1,24,0,36,0c2.8,0,3.9-1.2,3.7-3.9c-0.1-0.9-0.1-1.8,0-2.6
			c0.3-3.1-1.2-4.2-4.2-4.1c-5.9,0.1-11.7,0.1-17.6,0c-10.3-0.1-17.6-7-17.9-16.7c-0.3-10.3,6.7-17.8,17.2-18.3c6-0.3,12-0.2,18,0
			c3.1,0.1,4.9-0.8,6.1-4c3-8.2,9.6-12.6,17.7-12.5c8.2,0.2,14.7,4.9,17.6,13.3c0.9,2.5,2.2,3.3,4.6,3.2c6-0.1,12,0,18,0
			c5.5,0,10.1,2.1,14,6.1c2.3,2.5,2.9,5.4,3.5,8.4c0,2.3,0,4.5,0,6.8c-2.4,9.8-7.5,13.8-17.8,13.8c-5.7,0-11.5-0.1-17.2,0
			c-3.8,0.1-4.3,0.6-4.4,4.3c0,0.8,0.1,1.5,0,2.2c-0.3,3.2,1.2,4.2,4.2,4.1c4.4-0.1,8.7-0.1,13.1,0c3.6,0,7.2,0.7,10.5,2.3
			c6.5,3.1,10.7,7.9,11.6,15.3c0,2.8,0,5.5,0,8.3c-0.8,1.9-1.4,3.9-2.5,5.7c-3.9,6.8-9.7,10.6-17.6,10.8c-7.4,0.2-14.7,0-22.1,0.1
			c-3,0-5-1.1-6.1-4c-1.2-5.1,1-8.1,6.4-8.4c6-0.4,12-0.1,18-0.1c1.6,0,3.3,0,4.8-0.4c3.6-0.9,6.2-3.9,6.4-7.4
			c0.2-3.4-2-6.5-5.3-7.8c-2.4-0.9-4.9-0.9-7.4-0.9c-29.8,0-59.7,0-89.5,0c-13.3,0-20.8-6.2-23.6-19.3c-1-4.6-1.7-9.3-2.6-14
			c-1.8-8.6-3.7-10.2-12.3-10.2c-21-0.1-41.9,0.1-62.9-0.1c-5.5-0.1-11-0.1-16.4,0c-6,0-8.5,2.1-9.9,8c-1.2,5.5-2.1,11-3.1,16.5
			c-0.9,4.9-3,9.2-6.3,13c-3.8,3.6-8.3,5.5-13.5,6c-30.8,0-61.7,0.1-92.5,0.1c-2,0-4-0.1-6,0.3c-4.6,0.9-7.6,4.4-7.3,8.6
			c0.3,4.1,3.7,7.4,8.3,7.5c10.4,0.2,20.7,0.1,31.1,0.1c2.3,0,4.5,0,6.7,0.1c2.1-0.2,4.3-0.1,6.4-0.1c82.3,0,164.6,0,246.9,0
			c2.1,0,4.3-0.1,6.4,0.2C323.4,143,325.3,145.8,324.1,150.6z"/>
		<path class="st0" d="M119.2,124.7c4.5-0.6,8.3-2.7,11.8-5.5c2.9-1.5,6.1-0.9,9.2-1c3-0.1,6,0,9,0c6.9-0.1,10.9-3.1,12.4-10
			c1.2-5.6,1.5-11.4,2.4-17c0.6-3.5,0.1-7.3,3.2-10.1c22.5-0.1,44.9-0.2,67.4-0.1c4.7,0,7.9,3.1,8.9,8.1c1.1,5.8,2.1,11.5,3.2,17.3
			c2,11.5,9.8,18.2,21.5,18.2c30.7,0,61.4,0,92.1,0c1.6,0,3.3,0,4.8,0.4c4.8,1,7.8,5.2,7.4,9.8c-0.4,4.6-4.1,8.3-8.9,8.4
			c-7,0.2-14,0-21,0.1c-5.3,0-7.1,2-7,7.3c-2.5-2.1-9.2-2.1-11.7,0c0.2-5.5-1.6-7.3-7.7-7.3c-84.2,0-168.4,0-252.6,0
			c-1.7,0-3.5-0.1-5.2-0.2c-3.8-5-3.2-10.5-1.6-16c0.7-2.3,2.6-2.3,4.6-2.3c16.9,0,33.7,0,50.6,0
			C114.5,124.9,116.9,125.2,119.2,124.7z"/>
		<path class="st1" d="M69.7,183c2,1.6,4.2,2.8,6.9,2.4c0.1,1.1-0.6,1.6-1.3,2.1c-4.6,2.7-9.2,5.4-14.1,7.6c-0.8,0.4-1.7,0.6-2.5,0
			c1.8-2.2,2.8-4.6,1.4-7.5C63.4,186.4,66.1,183.9,69.7,183z"/>
		<path class="st0" d="M282.8,164.4c-3.6,9.1-6.9,18.4-10.9,27.3c-3.5,7.8-10.1,12.9-18.7,13c-29.9,0.3-59.8,0.1-89.7,0.1
			c-3.9-1.7-6.3-4.9-8.1-8.5c-4.7-9.4-8.2-19.3-11.9-29.1c-1.3-3.5-0.4-4.4,3.3-4.7c0.9-0.1,1.8-0.1,2.6-0.1
			c42.4,0,84.9,0,127.3,0.1C278.9,162.4,281.6,161.3,282.8,164.4z"/>
		<path class="st2" d="M282.8,164.4c-0.9-1.2-2.3-0.8-3.5-0.8c-44.4,0-88.9,0-133.3,0c-0.7,0-1.4,0.1-3,0.2c7,13.9,9,29.7,20.5,41
			c-11,0-22,0.5-32.9-0.1c-9.4-0.5-15.9-6.2-19.4-14.8c-4.4-10.6-8.4-21.3-12.8-31.9c-1.3-3-0.4-3.4,2.5-3.4
			c34.2,0.1,68.4,0.1,102.6,0.1c26.5,0,52.9,0,79.4,0c4.1,0,4.1,0,2.5,4C284.5,160.5,283.7,162.4,282.8,164.4z"/>
		<path class="st3" d="M228.2,216.6c6.4,1.1,10.7,5.7,10.9,12.3c0.2,8,0.2,16,0,24c-0.1,6.9-5.4,12.5-11.9,12.6
			c-21,0.1-41.9,0-62.9,0c-3.2-1.4-4.9-4.3-5.1-7.4c-1-11.3-0.9-22.7,0-34c0.1-1.7,1.1-3.3,2-4.8c1.1-1.8,2.7-2.9,4.9-2.8
			c20.5,0,40.9,0,61.4,0.1C227.8,216.4,228,216.5,228.2,216.6z"/>
		<path class="st4" d="M326.1,216.8c-13-7.1-26-14.2-39.2-21.1c-3-1.6-3.5-3-2-5.9c1.8-3.6,3.1-7.3,4.5-11.1
			c0.6-1.7,1.1-2.4,3.1-1.4c16.9,9.1,33.8,18.1,50.7,27.3c4.4,2.4,5.7,6.1,4.6,11.6c-4.7,22-9.5,44-14.2,66
			c-0.5,2.5-1.4,3.9-4.4,3.6c-2.7-0.3-5.5-0.1-8.2-0.2c-1.7-2.1-0.6-4.3-0.1-6.4c3.6-17,7.2-34.1,11.1-51c1-4.4,1.5-8.1-3.8-9.9
			C327.4,218.1,327,217.1,326.1,216.8z"/>
		<path class="st4" d="M58.7,195c6.3-2.5,12.2-5.9,17.9-9.6c4.8-2.6,9.8-5,14.5-7.8c2.1-1.2,2.9-0.7,3.7,1.4
			c1.5,4.1,3.2,8.1,4.9,12.1c0.9,2,0.5,2.9-1.5,4c-12.5,6.6-24.8,13.4-37.3,19.9c-3.5,1.8-4.8,4.2-3.9,8.2
			c4.4,20.1,8.7,40.2,13,60.3c0.1,0.6,0.2,1.2,0.4,2c-4.3,0-8.4,0-12.5,0c-1.2-1.1-1.3-2.7-1.6-4.1c-4.6-20.6-8.8-41.2-13.4-61.8
			c-0.9-3.9-1.6-7.8-0.1-11.8c1.1-2.9,2.7-5.3,5.3-7C51.6,199,55.1,197,58.7,195z"/>
		<path class="st2" d="M167.3,81.1c-2.5,7.3-2.6,15.1-3.8,22.6c-0.5,3.4-1,6.9-2.9,9.9c-2.2,3.5-5.1,5.7-9.4,5.6
			c-6.7-0.1-13.4-0.1-20.2-0.1c5.6-5.6,6.2-13.1,7.6-20.2c0.6-3.2,1.1-6.4,1.7-9.6c1.1-5.6,4.4-8.4,10.1-8.4
			C156.1,80.9,161.7,81.1,167.3,81.1z"/>
		<path class="st2" d="M119.2,124.7c-1.3,1.1-2.9,0.6-4.3,0.6c-17.2,0-34.5,0-51.7,0c-4.7,0-5.7,1-6.2,5.8
			c-0.4,4.2,0.4,8.2,1.5,12.1c-12.8,0-25.7,0.2-38.5,0.1c-4.6,0-8.2-3.8-8.7-8.3s2.4-8.6,6.9-9.8c1.1-0.3,2.2-0.5,3.3-0.5
			C54.1,124.7,86.7,124.7,119.2,124.7z"/>
		<path class="st5" d="M228.2,216.6c-12.2,0.1-24.4,0.2-36.6,0.2c-7.2,0-14.4,0-21.7,0c-6.5,0-8.7,0.9-9.5,7.3
			c-1.4,11.3-1.1,22.8-0.1,34.2c0.3,2.8,2.4,4.8,3.9,7.1c-0.6,0-1.2,0.1-1.9,0.1c-13.6,1.2-18.4-6.6-17.6-17.5
			c0.4-6.1,0-12.2,0.1-18.3c0.1-7.8,5.3-13.4,13.1-13.4c22.7-0.2,45.4-0.1,68.1-0.1C226.8,216.1,227.5,216.4,228.2,216.6z"/>
		<path class="st6" d="M369.1,79.4c2.9,0.9,3.9,3.1,3.4,5.8c-0.5,2.8-2.5,4.3-5.3,4.3c-19.7,0-39.3-0.1-59-0.2
			c-1.7-1.6-2-3.7-1.8-5.9c0.3-2.6,1.1-4.3,4.4-4.3c19,0.1,37.9,0.1,56.9,0.1C368.2,79.2,368.7,79.2,369.1,79.4z"/>
		<path class="st6" d="M101.3,79.5c2.9,1.1,3.6,3.3,3,6c-0.6,2.6-2.5,4-5.2,4c-19.5,0-39-0.1-58.5-0.2c-1.9-1.1-2.1-3-2.2-4.9
			c-0.1-3.8,1.2-5.2,5-5.2c14.1,0,28.2-0.1,42.3,0C90.9,79.2,96.1,78.7,101.3,79.5z"/>
		<path class="st1" d="M48,201c-5,5.7-5.8,11.9-4.1,19.3c5,20.8,9.2,41.8,13.7,62.7c0.2,0.8,0.1,1.7,0.1,2.6
			c-6.4,0.3-6.5,0.4-7.9-5.9c-4.6-21.1-9.2-42.3-13.7-63.4c-1.3-6,0.3-9.5,5.8-12.3C44,202.9,45.8,201.4,48,201z"/>
		<path class="st1" d="M326.1,216.8c2.6,0.3,4.5,2,6.8,3c1.4,0.6,1.5,1.6,1.2,3.1c-4,18.4-8,36.8-11.9,55.1c-0.5,2.5-1.4,5-1.2,7.7
			c-7.6,0.4-7.6,0.4-5.8-7.9c4-18.1,7.8-36.1,11.8-54.2C327.6,221.1,327.4,218.9,326.1,216.8z"/>
		<path class="st7" d="M101.3,79.5c-18.5,0-37.1,0-55.7,0c-6.1,0-6.8,0.8-5.8,6.9c0.2,1,0.5,1.9,0.8,2.8c-7.9,0.1-15.7,0.2-23.6,0.2
			c-3.5,0-5.6-2.2-5.7-5.2c0-3.1,2.3-5.4,5.9-5.4c12.9-0.1,25.7-0.1,38.6-0.1c13.7,0,27.5,0,41.2,0C98.4,78.8,100,78.4,101.3,79.5z"
			/>
		<path class="st7" d="M369.1,79.4c-18.4,0-36.9,0.1-55.3,0.1c-6.2,0-7.4,1.6-5.8,7.9c0.1,0.6,0.1,1.2,0.2,1.8
			c-7.7,0.1-15.5,0.2-23.2,0.2c-3.5,0-5.5-2.2-5.5-5.3c0-3.1,2.1-5.2,5.6-5.3c8.4-0.1,16.7-0.1,25.1-0.1c18.5,0,36.9,0,55.4,0
			C366.8,78.8,368.1,78.4,369.1,79.4z"/>
		<path class="st3" d="M72.8,297.7c1.3,5.4,2.6,10.8,3.9,16.4c-4.3,0-8.2,0-12.2,0c-0.8-0.4-1.4-1-1.6-1.9c-1-4-1.9-7.9-2.6-12
			c-0.3-2,0.3-3.1,2.5-2.9C66.2,297.6,69.5,296.9,72.8,297.7z"/>
		<path class="st3" d="M329.9,297.7c-1,5-2.1,9.9-2.9,14.9c-0.3,1.6-1.1,1.6-2.3,1.6c-3.5-0.1-6.9-0.1-10.4-0.1
			c-0.7-5.3,1.3-10.2,2.6-15.2c0.3-1,1.2-1.6,2.3-1.5C322.8,297.5,326.4,296.9,329.9,297.7z"/>
		<path class="st8" d="M64.4,107c-0.1,6.9,0.9,6.3-4.8,6.3c-7.9,0-8,0-7.9-7.4c0.1-6.1-1.4-5.2,7.7-5.3
			C64.4,100.6,64.4,100.7,64.4,107z"/>
		<path class="st9" d="M332.3,107.1c-0.1,7,0.9,6.2-4.9,6.2c-7.8,0-7.9,0-7.8-7.1c0-6.4-1-5.5,8-5.6
			C333.3,100.7,332.2,100.1,332.3,107.1z"/>
		<path class="st10" d="M329.9,297.7c-0.9,0-1.7,0-2.6,0c-9.8,0-9.8,0-11.6,9.5c-0.4,2.3-1,4.6-1.5,6.8c-2.2,0-4.4,0-6.8,0
			c1.1-5.2,2.1-10.2,3.2-15.2c0.3-1.2,0.6-2,2.2-2c5.5,0.1,11,0,16.5,0.1C329.5,297,329.7,297.5,329.9,297.7z"/>
		<path class="st11" d="M72.8,297.7c-3.1,0-6.2,0-9.3,0c-1.8,0-2.8,0.1-2.2,2.5c1.2,4.6,2.1,9.3,3.1,14c-7,0.4-7,0.4-8.4-6.4
			c-0.7-3.5-3.3-7.9-1.5-10.2c1.4-1.8,6.5-0.7,10-0.5C67.4,297.2,70.2,296,72.8,297.7z"/>
		<path class="st8" d="M57.8,67.5c-1,0-2,0.1-3,0c-0.9-0.1-2.2,0.5-2.7-0.6s0.5-2.1,1.3-2.9c1.6-1.7,3.6-2.2,5.8-1.7s4.4,1.8,4.3,4
			c-0.2,2.3-2.8,0.8-4.2,1.2C58.9,67.7,58.3,67.6,57.8,67.5C57.8,67.6,57.8,67.6,57.8,67.5z"/>
		<path class="st8" d="M326.3,67.6c-0.9,0-1.8,0.1-2.6,0c-1.1-0.2-2.8,0.7-3.3-0.8c-0.4-1.5,1-2.4,2-3.3c1.7-1.3,3.6-1.6,5.6-0.9
			c2,0.7,4,2.1,3.7,4.1s-2.7,0.6-4.1,0.9C327.3,67.7,326.8,67.6,326.3,67.6L326.3,67.6z"/>
		<path d="M211.6,241c0,10.8-8.7,19.4-19.5,19.5c-11,0-19.7-8.7-19.6-19.7c0.1-10.8,8.8-19.5,19.5-19.5
			C202.8,221.2,211.6,230,211.6,241z"/>
		<path class="st12" d="M191.9,249.1c-4.8,0-8.2-3.5-8.2-8.3c0-4.6,3.8-8.3,8.4-8.3c4.6,0.1,8.2,3.9,8.2,8.5
			C200.2,245.7,196.7,249.1,191.9,249.1z"/>
	</g>
</g>
</svg>
