<?xml version="1.0" encoding="utf-8"?>
<!-- Generator: Adobe Illustrator 24.1.2, SVG Export Plug-In . SVG Version: 6.00 Build 0)  -->
<svg version="1.1" id="Livello_1" xmlns="http://www.w3.org/2000/svg" xmlns:xlink="http://www.w3.org/1999/xlink" x="0px" y="0px"
	 viewBox="0 0 384 384" style="enable-background:new 0 0 384 384;" xml:space="preserve">
<style type="text/css">
	.st0{fill:#FEFEFE;}
	.st1{fill:#A3A3A3;}
	.st2{fill:#98D43B;}
	.st3{fill:#A2E340;}
	.st4{fill:#D1EFA1;}
	.st5{fill:#BBE973;}
	.st6{fill:#1CA46F;}
	.st7{fill:#158E5E;}
	.st8{fill:#8CC537;}
	.st9{fill:#0F7A4F;}
	.st10{fill:#FDFDFD;}
	.st11{fill:#1CA46E;}
	.st12{fill:#0F794F;}
	.st13{fill:#0C6741;}
	.st14{fill:#CFEDA0;}
</style>
<g>
	<g>
		<path d="M383.9,180.8c0,5.3,0,10.5,0,15.7c-1.1,11-5.4,20.6-12.7,28.9c-1.4,1.6-1.5,3.3-0.5,5.2c5.9,11.2,9.6,23.1,10.8,35.6
			c0.9,9.5,1.5,19.2-1.8,28.6c-3.5,10-10.9,14.9-21.1,15.9c-5.1,0.5-5.2,0.4-5.2,5.5c0,3,0.1,6,0,9c-0.1,2.7,1,3.8,3.7,3.8
			c5.5-0.1,11,0,16.5,0c1.3,0,2.5,0,3.7,0.1c3.6,0.4,5.7,2.2,6.1,5c0.6,4.4-0.5,6.3-4.2,8c-2.1,0.4-4.2,0.3-6.4,0.3
			c-120.9,0-241.7,0-362.6,0c-1.1,0-2.3,0-3.4,0c-3.6,0.1-6-1.4-6.9-5c0-1.3,0-2.5,0-3.8c1.1-4.1,4.3-4.8,7.8-4.8
			c9.7-0.1,19.5,0,29.2,0c4,0,8-0.1,12,0c2.9,0.1,4.1-1.2,3.9-4c-0.1-2.1-0.1-4.2,0-6.4c0.2-2.9-1.1-4-4-4
			c-5.9-0.1-11.7-0.7-17.4-1.9c-13-2.7-21.8-10.3-26.9-22.5c-3.5-8.5-4.3-17.4-4.2-26.4c0-5.2,0-10.3,0-15.5
			c-0.2-25,6.9-48.3,17-70.8c4.4-9.7,9.8-18.8,16.7-27c3.2-3.9,6.7-7.5,11.1-9.9c3.2-1.8,4-4.2,4-7.7c-0.1-15.4-0.2-30.7,0-46.1
			c0.1-10.2,2.6-19.8,8.8-28.1c5.3-7.1,11.8-12.8,20.3-16c4.4-1.6,7-0.6,9.5,3.3c0.3,1,0.7,2,0.5,3.1c-0.6,3.6-3.4,5-6.3,6.4
			c-7.8,3.6-13.4,9.5-16.8,17.4c-2,4.7-2.7,9.6-2.8,14.6c-0.1,14.5,0,29-0.1,43.5c0,3.3,1.1,4.9,4.3,5.9c7.6,2.5,13.4,7.6,18.4,13.6
			c1.1,1.3,2,2.8,3.8,4.4c0-5.7,0-11,0-16.3c0-6.5-0.1-13,0-19.5c0-2.8-0.8-5.1-2.9-7c-3.2-3-6.2-6.1-9.3-9.3
			c-3.7-3.8-4.1-7.4-1.3-10.2c2.7-2.7,6.8-2.5,10.4,0.6c0.8,0.7,1.4,1.5,2.5,2.1c0.9-1,0.5-2.3,0.5-3.4c0.2-4.8,2.5-7.8,6.2-7.9
			c4.1-0.1,7,3,7.1,7.9c0.1,8.7,0,17.5,0.1,26.2c0,1-0.2,2,0.2,3.3c1.7-1.2,3.3-2.2,5.4-2.3c2.2,0,3.8,1.1,5.1,2.7
			c1.5,2.3,1.6,4.7,0.4,7.1c-1.9,2.3-4,4.5-6.3,6.4c-4,3.3-5.9,7.2-4.9,11.8c3.1-3.5,7.2-6.8,11.3-9.9c3.6-2.3,7.3-4.3,11.2-6
			c2.2-1,3.2-2.4,3.2-4.9c0-14.5,0.6-29-0.2-43.4c-0.7-13-7.9-22.3-19.8-27.8c-3.6-1.7-6.1-3.9-5.3-8.3c2-4.8,5-6,10.3-3.9
			c12.2,4.9,20.4,13.7,25.3,25.7c2.1,5.4,3.1,11,3.1,16.8c-0.1,12.2-0.1,24.5,0,36.7c0,4.2,0.3,4.3,4.6,3.9
			c11.7-1,22.9,1.4,33.4,6.4c3.5,1.6,3.5,1.6,4.3-2.1c3.6-18.7,8.2-37.1,15.8-54.6c2.6-6.1,5.8-11.9,9.9-17.1
			c7.6-9.6,19.3-9.8,26.1,0.3c4.1,6.2,7.9,7.2,15.1,5.4c30.1-7.3,61.2,13.2,67.1,43.6c0.6,3.3,1.9,5.7,4.8,7.5
			c5.1,3.3,9.2,7.8,12.2,13c1.6,2.7,3.7,4,6.7,4.8c20.6,5.3,34,18.5,41,38.5C383.4,174.6,383.1,177.8,383.9,180.8z"/>
		<path class="st0" d="M383.9,342c-1.3-0.2-2.8,0.5-3.8-0.8c2.6-1.8,4.1-4.1,3-7.3c-1.1-3.2-3.9-3.8-7-3.8
			c-6.9,0.1-13.7-0.1-20.6,0.1c-2.4,0-3-0.7-2.9-3c0.2-4.7,0.1-9.5,0-14.2c-0.1-2.2,0.5-3.1,2.9-3.1c19.8-0.4,24.4-13.1,25.4-25.8
			c1.5-19-2.8-36.9-11.5-53.7c-1.1-2.1-1-3.3,0.6-5.1c6.9-7.5,11-16.5,13-26.5c0.2-0.8-0.3-1.8,0.9-2.2
			C383.9,245,383.9,293.5,383.9,342z"/>
		<path class="st0" d="M0.7,264c0.4,6.6,1.2,13.1,3,19.5c5.1,18.3,16.8,27.8,35.7,29.1c4.1,0.3,8.2,0.6,12.3,0.6
			c2,0,2.5,0.6,2.5,2.5c-0.1,3.7-0.2,7.5,0,11.2c0.2,2.5-0.7,3.1-3.1,3c-14.3-0.1-28.7,0-43-0.1c-3.4,0-6,0.9-7.9,3.7
			c0-23.2,0-46.5,0-69.7C0.3,263.6,0.6,263.7,0.7,264z"/>
		<path class="st1" d="M0.7,264l-0.3,0L0.1,264c0-5.5,0-11,0-16.5c0.2-0.1,0.4-0.1,0.6-0.1C0.7,253,0.7,258.5,0.7,264z"/>
		<path class="st2" d="M86.9,218.2c0.8,1.8,2.3,2.8,4,3.7c-0.5,5.2-1.5,10.3-3.8,15c-3.7,0-6.1,1.8-6.5,5.4
			c-1.5,12.3-1.8,24.7,1.6,36.8c2.2,7.9,4.9,11.7,12.1,17.7c-3.7,2.9-8.2,3.8-12.6,4.4c-4.6,0.6-9.2,0.6-13.8,1
			c-2,0.2-2.6-0.6-2.6-2.5c0.1-18.1,0.1-36.2,0-54.3c0-1.4,0.4-2.3,1.4-3.3c2-1.9,3.9-3.9,5.8-5.8c3.4-3.4,3.9-5.7,2.1-8.5
			c-1.8-2.7-4.7-3.1-9.3-0.9c0-4.7,0-9.3,0-13.8c0-4-2.3-6.6-5.6-6.6c-3.3,0-5.6,2.6-5.7,6.6c0,15.4,0,30.7,0,47
			c-2.4-2.4-4.3-4.3-6.2-6.1c-3.2-3.1-6.3-3.4-8.8-0.8c-2.3,2.4-2.1,5.7,0.8,8.6c4.1,4.2,8.2,8.4,12.5,12.4c1.3,1.2,1.8,2.4,1.8,4.2
			c-0.1,7-0.1,14,0,21c0,1.6,0,2.9-2.3,2.8c-6.1-0.2-12.2-0.4-18.2-1.7c-12.5-2.8-17.9-11.9-19.9-23.5c-3.6-19.9-1.8-39.5,2.8-59
			c4.7-19.9,12-38.8,24.1-55.6c3.5-4.9,7.3-9.5,12.8-12.3c3.4,0.9,4.9,3.9,6.9,6.4c9.5,11.8,15.8,25.4,20.8,39.5
			C83.5,203.2,86.2,210.5,86.9,218.2z"/>
		<path class="st3" d="M241.5,210.6c-3.9,1.2-6,4.8-8.8,7.4c-1.4,1.2-2.4,2.8-3.7,4.2c-1.5-1.3-1-2.5-1-3.5c-0.1-13.7,0-27.5,0-41.2
			c0-4.8-1.9-7.3-5.6-7.3c-3.7,0-5.6,2.4-5.7,7.2c0,3,0,6,0,9.4c-2.9-1.8-4.7-4.3-6.9-6.4c-3.3-3.1-6.3-3.5-8.9-1
			c-2.6,2.5-2.2,5.9,1,9.1c4.2,4.3,8.4,8.5,12.7,12.7c1.4,1.4,2.1,2.8,2.1,4.9c-0.1,19.2-0.1,38.5,0,57.7c0,2.6-0.6,3.3-3.3,3.3
			c-9.5-0.1-15.8-4.5-19.2-13.3c-3.3-8.7-4.6-17.9-5.2-27.1c-2.7-45.2,2.8-89.4,16.3-132.6c2.4-7.7,5.2-15.3,9.6-22.2
			c2.6,0.1,2.9,2.5,3.7,4.1c5.1,10.6,8.5,21.9,11.4,33.2c5.6,21.9,9.3,44.2,11,66.8c0.7,9.8,1.5,19.6,1.4,29.5
			C242.5,207.3,242.9,209.2,241.5,210.6z"/>
		<path class="st4" d="M301.5,268.5c0-9.4-0.1-18.7-0.2-28.1c0-1.4,0.6-2.3,1.5-3.2c2.8-2.7,5.5-5.4,8.2-8.2c3.1-3.1,3.4-6.4,1-8.9
			c-2.5-2.6-5.4-2.3-8.8,0.7c-0.4,0.4-0.9,0.8-1.9,1.7c0-5.8,0-10.8,0-15.8c0-5.7,0.1-11.5,0-17.2c-0.1-4.1-2.3-6.5-5.7-6.5
			c-3.4,0-5.4,2.4-5.5,6.6c0,2.1,0,4.2,0,6.8c-2.3-1.1-3.5-3-5.1-4.4c-3-2.7-6.2-3-8.6-0.6c-2.4,2.4-2.2,5.6,0.7,8.6
			c3.7,3.8,7.3,7.5,11.1,11.1c1.4,1.3,1.9,2.7,1.9,4.6c-0.1,17.6-0.1,35.2,0,52.8c0,2.8-0.6,3.4-3.4,2.5c-10.2-3-17.5-9.3-22-18.9
			c-0.8-1.6-1.1-3.2-0.8-5.1c3.9-18.6,4-37.4,3.2-56.3c-0.6-14.6-2.1-29.1-4.2-43.6c-0.3-2.1,0-3.9,0.8-5.8
			c5.6-14.2,20.2-23.8,33.9-22.2c7.7,2.9,11.7,9.4,15.2,16.2c2.7,5.3,3.9,11,3.9,17c0,28.6,0.1,57.1,0,85.6
			c0,10.5-3.5,19.8-10.7,27.6C304.9,267,303.7,268.8,301.5,268.5z"/>
		<path class="st4" d="M112.6,122.3c-4.2-3.4-5.5-3.3-10.9,1.3c-1-0.7-0.5-1.8-0.5-2.7c-0.1-9.7,0-19.5,0-29.2c0-2.1-0.3-4-1.8-5.5
			c-1.6-1.6-3.6-1.9-5.6-1.3c-2.2,0.7-3.7,2.2-3.8,4.6c-0.1,2.7,0,5.4,0,8.1c-0.3,0.2-0.7,0.5-1,0.7c-1.5-1.7-2.9-3.6-4.6-5.2
			c-2.7-2.6-6.1-2.5-8.3-0.1c-2.2,2.3-2.1,5.4,0.4,8c3.8,4,7.8,7.8,11.6,11.7c0.9,0.9,1.8,1.6,1.8,3.1c-0.1,13.7,0,27.3,0,41.7
			c-3-3.6-5.5-6.6-8.2-9.5c-5-5.4-10.7-9.8-18.1-11.3c-1.2-0.3-2-0.6-1.9-2.1c0.3-17.8-0.9-35.7,0.5-53.5c1-12.7,8.4-21.6,19.9-26.9
			c2.7-1.2,4.8-2.6,5.6-5.5c1.9-1.3,3.7-0.2,5.2,0.7c13.1,7.5,20.6,18.8,21.3,33.9c0.5,11.5,0.2,23,0.1,34.5
			C114.3,119.5,115,121.6,112.6,122.3z"/>
		<path class="st3" d="M87.1,236.9c0.8-5.1,1.8-10.2,3.8-15c4,0.3,6.1-1.9,7.3-5.5c3.4-10,7.8-19.4,14.3-27.8
			c1.1-1.5,2.1-3.1,3.8-4.1c2.3-1.1,3.2,0.9,4.1,2.2c4.9,6.7,8.7,14,11.7,21.7c4.3,11,7.3,22.3,8.8,34c0.2,1.8,0.5,3.5-0.7,5
			c-3.1,3-6.3,6-9.5,9c-0.5-0.8-0.2-1.9-0.2-2.9c0-7.5,0-15,0-22.4c0-4.3-2.3-6.8-5.8-6.7c-3.4,0.1-5.4,2.5-5.4,6.7
			c0,18.2,0,36.4,0,54.6c0,5.4,0.8,4.8-4.7,4.7c-2.6-0.1-5.2-0.4-7.8-0.8c-6.4-1.1-10.8-4.8-12.9-11c-3.2-9.3-3.3-18.8-2.7-28.5
			c0.1-1.9,0.3-3.7,0.5-5.6C92.2,240.6,90.7,238.1,87.1,236.9z"/>
		<path class="st2" d="M241.5,210.6c0.4-12.8-0.4-25.6-1.6-38.3c-2.6-27.2-7.2-54-15.8-80c-2.3-7-4.6-14.2-9-20.3
			c1.8-3.3,3.4-7.7,7.1-8c3.8-0.3,5.3,4.3,7.2,7.3c3.6,5.8,6.1,12.2,8.4,18.7c1.6,4.3,3.3,5.3,8,4.7c2.7,4.6,4.7,9.4,3.9,14.9
			c-4.3,2.7-4.8,4-3.4,9.8c7.1,31,10.7,62.4,9.9,94.3c-0.3,11.8-0.9,23.7-4.2,35.2c-1.1,3.7-2.4,7.3-4.6,10.6
			c-3.7,5.5-12.2,9-18.4,7.7c-1-0.2-1.1-0.8-0.9-1.6c7.4-9.1,9.3-20.1,10.8-31.2c0.4-2.6,0.6-5.2,1.1-7.7c1.8-1.8,3.4-3.6,5.3-5.3
			c2.1-1.9,3.3-4.2,2.2-7C246.4,211.5,244.2,210.6,241.5,210.6z"/>
		<path class="st2" d="M140.2,247.4c-0.5-11.6-3.4-22.8-7.2-33.7c-3.3-9.6-7.6-18.6-13.7-26.8c-0.8-1.1-1.5-2.3-3.1-2.4
			c6-6.6,10.1-6.9,16.4-0.9c7.1,6.8,11.6,15.3,15.4,24.1c7.2,16.8,11.1,34.4,10.7,52.7c-0.1,4.2-0.6,8.5-1.4,12.6
			c-2.1,11.2-7.4,15.9-18.6,17c-2.2,0.2-4.5,0-6.7,0.1c-0.8-1-0.2-1.9,0.4-2.7c5.5-6.7,6.9-14.5,6.9-22.9c2.7-2.8,5.3-5.5,8-8.2
			c3.1-3.2,3.8-6.3,1.7-8.8C147,244.9,144.1,244.8,140.2,247.4z"/>
		<path class="st5" d="M301.5,268.5c9.4-7.6,14-17.7,14.1-29.6c0.2-27.3-0.2-54.7,0.2-82c0.2-15.8-5.3-28.3-18.1-37.6
			c15.7-0.2,31.1,14.4,31.4,30.7c0.4,23.7,0.1,47.4,0.2,71.1c0,1.5-0.7,2.6-1.4,3.7c-7.3,11.7-11.7,24.4-13.8,38
			c-0.6,4.2-7.4,9.3-11.7,8.5C300.4,271.1,301.6,269.5,301.5,268.5z"/>
		<path class="st6" d="M167.4,164.2c-5-2.7-7.7,1.3-11.2,4.6c0-2.6,0.1-4.4,0-6.3c-0.1-3.3-2.3-5.6-5.2-5.7c-3.1-0.1-5.7,2-5.9,5.5
			c-0.2,4.6-0.1,9.2-0.1,13.9c0,0.9,0.4,2-0.6,3c-5.9-5.8-11.9-11.9-21-11c-8.9,0.9-14.5,7.2-19.8,13.6c-4.3-5.5-4.6-7-1.5-13
			c9.1-17.7,23.3-28.1,43.4-30.1c2.6-0.8,4.7,0.1,6.8,1.8c6.7,5.3,11.4,12.1,15.4,19.5C168.3,161.3,169.9,163,167.4,164.2z"/>
		<path class="st5" d="M112.6,122.3c1.1-1.1,0.7-2.6,0.7-3.9c0-11.4,0.4-22.9-0.1-34.3c-0.6-15.8-8.5-27.3-22.6-34.5
			c-0.8-0.4-1.9-0.5-2.8-0.7c-0.1-0.7-0.3-1.5-0.4-2.2c5.3-1,10.7-1,16.1,0c-0.5,4,1.5,6,5,7.6c13.2,5.9,20.3,16.3,20.6,30.7
			c0.3,14.2,0,28.5,0.1,42.7c0,2-0.3,3.2-2.4,3.9c-4.8,1.6-9,4.3-13.3,6.8c-2.2-2.9-1.2-6.2-0.8-9.3
			C113.7,126.8,113.7,124.6,112.6,122.3z"/>
		<path class="st0" d="M301.3,306.6c0-6.9,0-13.7,0-20.6c0-2,0.1-3.3,2.7-3.4c3-0.1,6.6-3.1,8.6-1.6c1.7,1.3,1,5.6,1.5,8.5
			c2.6,13.1,10.1,19.7,23.5,20.2c3.1,0.1,4,1,3.9,4.1c-0.3,4.6-0.2,9.2,0,13.9c0.1,2-0.7,2.5-2.5,2.5c-11.7-0.1-23.5-0.1-35.2,0
			c-2.1,0-2.5-0.7-2.4-2.6C301.4,320.6,301.3,313.6,301.3,306.6z"/>
		<path class="st7" d="M249.8,109.6c-1.3-5-2.6-9.9-3.9-14.9c3.7-3.1,4.1-4.7,2.2-9.8c-2.6-7.2-2.6-7.2,4.9-8.8
			c1.1-0.2,2.2-0.2,3.3-0.3c5-1.1,9.4,0.1,13.5,3.4c8.3,6.5,14,14.7,17.5,24.6c0.6,1.7,1.5,3.6-0.9,4.9c-10.9,2.3-19.6,8.1-26.8,17
			c-1.6-3.6-1.8-6.9-2.6-10.2C256,111.1,254.4,109.8,249.8,109.6z"/>
		<path class="st3" d="M352.5,254.9c-1.6-2.9-4-4.6-7.4-3.4c-3.2,1.1-3.8,3.9-3.8,7c0,12.1-0.1,24.2,0.1,36.3c0,3.1-0.6,4.1-3.9,3.8
			c-7.6-0.7-11.3-3.3-12.4-11.4c-3-22,2.3-42,15-60.1c0.2-0.3,0.5-0.5,0.8-0.7c1.8-0.3,2.3,1.2,3,2.3c4.6,7,7.4,14.7,9.7,22.6
			C354.1,252.6,354.6,254.3,352.5,254.9z"/>
		<path class="st7" d="M167.4,164.2c1.1-0.9,0.5-1.8,0.1-2.6c-4.4-8.6-10.1-16-17.8-22c-1.3-1.1-2.9-0.5-4.3-0.9
			c9-1.6,17.6,0.3,25.8,3.6c10.3,4.1,10.2,4.2,8.9,16c-2.2,20.6-4.1,41.2-2.5,61.9c0.4,5.1,0.4,10.2,1.1,15.3
			c0.3,2.4-0.6,3.3-2.4,4.3c-6.9,3.7-7,3.7-8.2-3.8c-1.1-6.3-2.6-12.4-4.4-18.5c2.1-5,4.9-9.7,6.3-15.1c2.7-10.7,2.4-21.4-0.4-32
			C169.8,167.9,169,165.9,167.4,164.2z"/>
		<path class="st2" d="M352.5,254.9c0.8-0.7,0.8-1.6,0.6-2.4c-2.9-9.2-5.7-18.5-12.1-26.1c4.9-5.8,7.3-6,12.2-0.2
			c8.2,9.7,12.3,21.3,14.9,33.5c2,9.3,2.7,18.8,0.8,28.3c-1.5,7.8-6.3,11.3-14.2,10.8c-0.7,0-1.5,0.1-2-0.7c-0.9-1.5,0-9.4,1.3-10.7
			c2-2,4.1-4,6.1-6.1c3.7-3.7,4.3-6.3,2.2-9.1c-2.1-2.7-5-2.8-9.9,0.2C352.5,266.3,352.5,260.6,352.5,254.9z"/>
		<path class="st0" d="M156.4,312.9c0-4.9,0-9.7,0-14.6c0-1.6,0.6-2.6,1.7-3.9c2.4-2.9,4.6-3,8-1.5c4.4,2,9.4,2.7,14.2,3
			c2,0.1,2.5,0.8,2.5,2.7c-0.1,9.6-0.1,19.2,0,28.9c0,1.8-0.4,2.7-2.4,2.6c-7.2-0.1-14.5-0.1-21.7,0c-2,0-2.5-0.6-2.5-2.6
			c0.1-4.9,0-9.7,0-14.6C156.3,312.9,156.4,312.9,156.4,312.9z"/>
		<path class="st8" d="M86.9,218.2c-3.1-9.7-5.6-19.5-9.4-28.9c-5.9-14.5-13.2-28-24.2-39.3c4.5-3.4,9.1-2.6,13.5,0.2
			c6.5,4.2,11.1,10.3,15.3,16.6c5.1,7.7,9.1,16,12.6,24.5c0.8,1.9,0.7,3.5-0.3,5.3c-2.7,4.9-4.7,10.2-6.7,15.4
			C87,214.1,86.6,216.1,86.9,218.2z"/>
		<path class="st9" d="M340.6,148.6c-0.6-2.3-0.1-3.3,2.5-2.3c15.5,6.2,25.4,17.4,28.7,33.7c2.6,12.7-0.4,24.4-7.9,35
			c-1.7,2.4-3,4-5.4,0.7c-1.5-2.1-4.2-2.6-6.1-4.3c-1-1.4,0-2.6,0.5-3.8c8.5-20.3,5-38.5-9.3-54.9
			C342.5,151.5,341.2,150.2,340.6,148.6z"/>
		<path class="st7" d="M340.6,148.6c9.4,8.4,15.3,18.6,17.2,31.2c1.5,10.4,0,20.2-4.6,29.6c-0.3,0.7-0.5,1.4-0.7,2.1
			c-3.9-1.1-7.8-1-11.9,0.5C340.6,190.6,340.6,169.6,340.6,148.6z"/>
		<path class="st0" d="M216.8,285.9c0,12.3,0,24.1,0,36c0,8.3,0,8.3-8.3,8.3c-4,0-8-0.1-12,0c-1.9,0-2.6-0.4-2.6-2.4
			c0.1-10,0.1-20,0.1-29.9c0-1.3-0.2-2.6,1.6-2.9C203.1,293.5,209.9,290.3,216.8,285.9z"/>
		<path class="st10" d="M258.3,263.7c1.9,2.4,3.4,4.5,5.2,6.4c1.1,1.2,1.1,2.4,1.1,3.8c0,17.7-0.1,35.4,0,53.2
			c0,2.5-0.8,3.1-3.2,3.1c-9.3,0-9.3,0.1-9.3-9.2c0-14.6,0.1-29.2-0.1-43.8c0-3.8,0.3-7.1,3.4-9.6
			C256.6,266.5,257.2,265.1,258.3,263.7z"/>
		<path class="st0" d="M275.8,279c4.4,1.7,8.4,3.4,12.7,3.8c1.6,0.2,1.6,1.2,1.6,2.4c0,14.2,0,28.4,0,42.6c0,1.9-0.6,2.4-2.4,2.3
			c-3.8-0.1-8.7,1.2-11.2-0.6c-2.4-1.8-0.7-7-0.7-10.6C275.7,305.7,275.8,292.5,275.8,279z"/>
		<path class="st0" d="M240.9,327.3c0.1,2.4-0.7,3-2.9,2.8c-3.2-0.2-7.4,1-9.4-0.6c-2.1-1.7-0.6-6.1-0.6-9.3
			c-0.1-12.6,0.1-25.2-0.1-37.8c0-3.1,0.4-4.7,3.9-4.2c1.3,0.2,2.7-0.1,4.1-0.3c4.9-0.7,4.9-0.7,4.9,4.4c0,7.2,0,14.5,0,21.7"/>
		<path class="st11" d="M169.6,170.3c2.2,1.6,2,4.1,2.4,6.4c2.5,14.1,0.3,27.3-6.8,39.8c-0.3,0.6-0.8,0.9-1.4,1
			c-2-5.9-4.2-11.7-6.7-17.4c-2-4.6-0.9-9.6-0.8-14.4c0.1-2.4,2.9-3.6,4.4-5.3C163.6,176.9,167.5,174.4,169.6,170.3z"/>
		<path class="st12" d="M286.5,108.6c1.2-1.5,0.6-3,0-4.6c-3.8-10.7-10.2-19.3-19.6-25.9c-3.5-2.5-6.9-2.1-10.6-2.4
			c7.4-1.8,14.5-0.1,21.5,2.3c13.4,4.8,24.5,17.2,27.1,30.3C298.8,107.9,292.6,107.4,286.5,108.6z"/>
		<path class="st12" d="M169.5,282c-1.7-0.1-2.5-0.9-2-2.7c2.1-7.4,2.6-14.9,2.7-22.5c0-1.9,0.8-2.6,2.4-3.2
			c2.1-0.7,4.3-1.4,6.2-2.5c2.3-1.4,2.9-0.3,3.4,1.7c2.1,7.9,5.9,14.7,12.2,20.1c0.3,2.3-1.6,3-3.1,3.7
			C184.4,279.7,177.4,282.8,169.5,282z"/>
		<path class="st0" d="M119.3,316c0,4-0.1,8,0,12c0,1.6-0.4,2.2-2.1,2.1c-4.6-0.1-9.2-0.1-13.9,0c-2,0.1-2.2-0.8-2.2-2.4
			c0.1-6.5,0-13,0-19.5c0-3,4.9-7.3,8-7c0.5,0,1,0.1,1.5,0.1c2.7,0.2,6.4-0.7,7.9,0.8c1.9,1.9,0.5,5.6,0.6,8.6
			C119.3,312.5,119.3,314.3,119.3,316z"/>
		<path class="st0" d="M76.7,330.1c-3.2-0.3-8.5,1.7-10.7-0.8c-1.9-2.1-0.3-7.3-0.7-11.1c-0.4-3.7,0.6-5.1,4.6-5
			c5.9,0.2,11.9-0.3,17.8-1.7c1.5-0.4,2.3-0.4,2.3,1.5c-0.1,5-0.1,10,0,14.9c0,1.6-0.5,2.2-2.1,2.1C84.3,330,80.9,330.1,76.7,330.1z
			"/>
		<path class="st0" d="M144.9,315.4c0,4.1-0.1,8.3,0,12.4c0.1,1.7-0.4,2.4-2.3,2.4c-3.4-0.1-6.8-0.1-10.1,0
			c-1.7,0.1-2.1-0.5-2.1-2.1c0.1-8.1,0.1-16.2,0-24.4c0-1.3,0.2-2.1,1.8-2.1c3.6,0,7.3,0,10.8-0.8c1.7-0.4,1.8,0.6,1.8,1.9
			C144.9,306.9,144.9,311.2,144.9,315.4z"/>
		<path class="st3" d="M240,226.5c1.9,2.4,0.1,4.9-0.2,7.1c-1,10.3-2.7,20.4-8.7,29.3c-0.8,1.2-1.4,2.4-3,2.5c0-8.3-0.1-16.6-0.1-25
			c0-1-0.1-2,0.7-2.8C232.7,234.2,235.8,229.8,240,226.5z"/>
		<path class="st13" d="M169.5,282c6.5-1.3,13.1-2.3,19.2-5.3c2.1-1,4.3-2,5.7-4c4,2.4,8.1,4.4,12.9,4.9
			C201.3,284,181.2,287.8,169.5,282z"/>
		<path class="st3" d="M139.4,264.6c1.2,0.8,1,2,0.9,3c-0.4,7.4-1.9,14.5-7.1,20.3c-0.6,0.7-1.2,1.3-1.2,2.3
			c-1.6,0.4-1.5-0.7-1.5-1.8c0-4.6,0-9.2,0-13.7c0-1.1,0.4-1.9,1.1-2.6C134.2,269.6,136.8,267.1,139.4,264.6z"/>
		<path class="st14" d="M112.6,129c1.5,3,0.2,6.3,0.8,9.3c-4.1,3.2-8.1,6.5-11.9,10.8c-0.7-5-1.1-9.3,3.3-12.6
			C107.7,134.4,110,131.6,112.6,129z"/>
	</g>
</g>
</svg>
