<?xml version="1.0" encoding="utf-8"?>
<!-- Generator: Adobe Illustrator 24.1.2, SVG Export Plug-In . SVG Version: 6.00 Build 0)  -->
<svg version="1.1" id="Livello_1" xmlns="http://www.w3.org/2000/svg" xmlns:xlink="http://www.w3.org/1999/xlink" x="0px" y="0px"
	 viewBox="0 0 409.6 409.6" style="enable-background:new 0 0 409.6 409.6;" xml:space="preserve">
<style type="text/css">
	.st0{fill:#000001;}
	.st1{fill:#010102;}
	.st2{fill:#55BC8A;}
	.st3{fill:#95C959;}
	.st4{fill:#000102;}
</style>
<g>
	<g>
		<path class="st0" d="M0.1,237.9c3.3-5.5,5.8-6.6,12.2-5.2c29.6,6.8,55.9,19.8,78,40.9c0.4,0.4,0.8,0.7,1.3,1.1
			c0.7-1.8-0.6-2.8-1.3-4c-17-32-38.6-60.7-62.7-87.6c-6.8-7.6-13.9-15-20.9-22.5c-3.5-3.7-4.2-7-2.4-10.4c1.8-3.5,5.5-4.9,10.4-3.8
			c52.7,11.6,99.1,35.1,137,74.1c2.5,2.6,4.9,5.3,7.2,8c2.3,2.6,4.4,5.3,6.9,8.3c1.4-5.2,1.2-10.2,1.6-15.1
			c2.4-31.8,5.3-63.6,9.1-95.3c2.9-23.3,5.9-46.6,12-69.4c1.5-5.5,3.2-11,6.2-15.9c6.5-10.6,17.5-10.4,23.5,0.5
			c5.6,10.2,7.8,21.4,10,32.6c7.5,38.4,11.1,77.3,14.6,116.2c0.5,6,1.1,11.9,1.6,17.9c1.5,0.3,2-1.1,2.7-1.9
			c26.8-28.3,58.4-49.6,94.6-64c17.3-6.9,35.3-11.5,53.6-14.7c3.9-0.7,7.2,0.5,9.1,4.2c2,3.9,0.7,7.2-2.2,10.1
			c-15.1,15.5-29.7,31.6-43.3,48.5c-24.4,30.5-45.7,62.9-60.9,99.1c-2.9,6.9-5.5,14-7,21.5c1.4-2.5,2.7-5.1,4.2-7.6
			c18.9-32.6,47.5-53,82.4-65.4c6.4-2.3,13-3.8,19.5-5.5c5-1.2,8.6,0.1,10.5,3.5c2,3.5,1.3,6.8-2.4,10.7
			c-14.7,15.4-28.6,31.5-40.1,49.5c-10.5,16.4-19.2,33.6-23,53c-0.6,2.9-0.8,5.8-1.3,8.7c-0.4,2.5,0.4,3.1,2.9,3.1
			c17.8-0.1,35.6-0.1,53.5,0c1.8,0,3.7,0.1,5.5,0.5c3.6,0.8,6.1,4.4,5.9,8c-0.3,3.7-3,6.7-6.8,7.3c-1.4,0.2-2.9,0.2-4.4,0.2
			c-120.8,0-241.6,0-362.4,0c-1.6,0-3.2,0-4.8-0.2c-3.8-0.6-6.4-3.6-6.6-7.4c-0.1-3.9,2.1-7,5.9-7.8c1.5-0.4,3.1-0.5,4.7-0.5
			c9.8,0,19.7-0.3,29.5,0.1c4,0.1,4.3-1.5,3.9-4.5c-1.4-10.7-4.4-21-8.6-31c-10.9-25.6-27.4-47.5-45.7-68.1
			c-4.6-5.1-10-9.5-13.5-15.6C0.1,240.6,0.1,239.3,0.1,237.9z"/>
		<path class="st1" d="M0.1,367.2c1.9-3.8,4.5-6.5,9.1-5.9c3.8,0.5,6.3,2.6,6.9,6.5c0.6,3.8-1.4,7.3-4.7,8.6
			c-3.3,1.3-7.4,0.2-9.6-2.7c-0.6-0.8-1.1-1.7-1.7-2.6C0.1,369.9,0.1,368.5,0.1,367.2z"/>
		<path class="st2" d="M372.9,149.9c-4.6,5.3-9.3,10.5-13.9,15.8c-26.4,30.6-49.8,63.3-67.5,99.7c-11.4,23.2-20,47.4-23.7,73.2
			c-0.9,6.3-1.6,12.7-1.2,19.1c0.1,2.7-0.9,3.7-3.4,3.3c-0.1,0-0.3,0-0.4,0c-12.2,0.1-12,0.1-11.1-12.1c1.9-25.2,8.8-49,18.8-72.1
			c1.3-2.9,2.6-5.8,3.6-8.8c1.4-4.1-0.4-8-4.1-9.6c-3.7-1.7-8-0.5-10,3.2c-2.3,4.3-4.2,8.9-6.1,13.4c-8.6,20.4-14.7,41.5-17.3,63.6
			c-0.7,6.2-1.4,12.4-1,18.7c0.2,2.8-0.5,4-3.6,3.9c-5.4-0.3-10.9-0.2-16.4,0c-2.5,0.1-3.6-0.7-3.8-3.2c-1.4-14-3.8-27.9-7.3-41.5
			c-0.3-1.3-0.1-2.6,0.3-3.9c12-41.8,34.3-77.2,66.1-106.7c28.7-26.6,61.8-45.2,99.4-55.9c0.6-0.2,1.2-0.3,1.9-0.5
			C372.5,149.5,372.7,149.7,372.9,149.9z"/>
		<path class="st3" d="M36.4,168.8c9.5,2.6,17.9,6,26.1,9.6c28.9,12.8,55.2,29.6,77.2,52.6c26.2,27.4,42.9,59.7,51.2,96.6
			c2.2,10,3.6,20.1,5,30.2c0.3,2.4,0,3.2-2.7,3.2c-19.1-0.1-38.3-0.1-57.4,0c-2.5,0-3.1-0.9-3.1-3.2c-0.2-23.9-6.7-46.4-15.7-68.3
			c-16.9-40.9-42-76.4-70.8-109.7C43.1,176.4,40,172.9,36.4,168.8z"/>
		<path class="st3" d="M206.3,53.4c3.9,10.5,5.9,20.4,7.6,30.3c6.6,36.9,9.9,74.2,13.4,111.5c0.9,9.8,1.6,19.6,2.4,29.4
			c0.1,1.4-0.1,2.6-0.9,3.7c-13.5,18.1-24.2,37.7-32.5,58.7c-0.1,0.3-0.4,0.6-1,1.3c-4.3-10.2-9.5-19.6-14.2-29.2
			c-1.8-3.7,0-8.4,0.3-12.6c1.9-25,3.7-50.1,6.2-75.1c3.7-36.6,7-73.2,15.9-109.1C204.3,59.8,205.2,57.2,206.3,53.4z"/>
		<path class="st2" d="M34,256.5c8.7,3,16,7.1,23,11.4c29.7,18.4,48.7,44.5,56,78.8c0.8,3.9,1.3,7.9,1.9,11.8
			c0.3,1.9-0.3,2.6-2.3,2.6c-8.8-0.1-17.5,0-26.3,0c-1.5,0-2.4-0.3-2.6-2.1c-1.9-26.3-13.1-49.2-26.8-71.1
			c-6.2-9.9-13.3-19.2-20.7-28.3C35.8,258.8,35.2,257.9,34,256.5z"/>
		<path class="st3" d="M374,257c-12.4,15.1-23.5,31-32.5,48.2c-8.6,16.7-15.3,34.1-16.6,53.1c-0.1,2.1-0.9,2.7-2.9,2.7
			c-8.6-0.1-17.3-0.1-25.9,0c-2.3,0-2.6-0.9-2.4-2.9c4.6-34.6,19.9-62.9,48.3-83.7C352,267.3,362.5,261.3,374,257z"/>
		<path class="st4" d="M271.3,240.8c0-4.7,3.8-8.5,8.3-8.4c4.2,0.1,7.8,3.8,7.8,8c-0.1,4.6-4,8.5-8.4,8.5
			C274.8,248.9,271.2,245.1,271.3,240.8z"/>
	</g>
</g>
</svg>
