<?xml version="1.0" encoding="utf-8"?>
<!-- Generator: Adobe Illustrator 24.1.2, SVG Export Plug-In . SVG Version: 6.00 Build 0)  -->
<svg version="1.1" id="Livello_1" xmlns="http://www.w3.org/2000/svg" xmlns:xlink="http://www.w3.org/1999/xlink" x="0px" y="0px"
	 viewBox="0 0 720 368" style="enable-background:new 0 0 720 368;" xml:space="preserve">
<style type="text/css">
	.st0{fill:#8AB34F;}
	.st1{fill:#A57D56;}
	.st2{fill:#806040;}
	.st3{fill:#607C35;}
</style>
<g>
	<g>
		<path class="st0" d="M0.7,184.5c-0.1-2-0.1-4-0.2-6c-0.1-1.5,0.9-2.3,2.1-2.8c10.7-5.1,21.2-10.8,32-15.7
			c9.8-4.4,19.3-9.6,28.9-14.3c11.2-5.5,22.3-11.2,33.5-16.4c10.6-4.9,20.9-10.6,31.6-15.4c11.3-5.1,22.1-11.2,33.4-16.3
			c11.1-5,21.8-10.8,32.8-16.1c11.1-5.4,22-11,33.1-16.1c10.8-5,21.2-10.8,32-15.7c11.1-5,21.8-11,32.9-16.1
			c19-8.8,37.6-18.5,56.6-27.5c2.9-1.4,5.8-2.8,8.7-4.3c1.2-0.6,2.2-0.7,3.5,0c20.4,10.1,40.6,20.4,61.2,30
			c12.2,5.7,24.1,12,36.2,17.6c9.8,4.6,19.5,9.5,29.3,14.3c21.9,10.8,43.6,21.8,65.7,32.2c11,5.2,21.7,10.7,32.6,16
			c21.8,10.5,43.5,21.2,65.2,31.8c11,5.4,21.9,11.2,33.1,16.2c10.9,4.8,21.2,10.6,32,15.6c1.8,0.9,2.8,2,2.6,4.3
			c-0.2,3.4,0,6.8-0.1,10.2c0,1.1,0.2,2.3-1.3,2.6c0-2.4,0.3-4.8,0.2-7.2c0-1.8,0.1-3.7,0-5.5c0-1.3-0.7-1.6-1.8-1.1
			c-0.6,0.3-1.2,0.6-1.8,0.9c-8.9,4.4-17.6,9.1-26.6,13.3c-10.3,4.8-20.2,10.3-30.5,14.9c-11.9,5.3-23.3,11.6-35,17.1
			c-10.2,4.8-20,10.2-30.3,14.8c-12,5.3-23.4,11.7-35.2,17.2c-10,4.6-19.6,10-29.6,14.5c-12.3,5.5-24,12-36.1,17.6
			c-9.7,4.5-19,9.7-28.7,14c-12.5,5.6-24.5,12.1-36.8,18c-8.1,3.8-15.9,8-24,11.7c-12.6,5.8-24.9,12.1-37.3,18.1
			c-2.8,1.4-4.3,2.9-3.8,6.1c0.1,0.9,0.1,1.8-0.2,2.7c-0.1,0.2-0.3,0.4-0.5,0.5c-2.2,0-4-1.2-5.8-2c-10.6-5.1-21-10.4-31.6-15.5
			c-19.8-9.6-39.7-19.3-59.4-29.1c-11.4-5.7-22.9-11.1-34.4-16.7c-5.9-2.9-11.9-5.7-17.7-8.6c-14.1-7.1-28.3-13.8-42.4-20.7
			c-17.6-8.6-35.2-17.4-52.9-25.9c-16.4-7.9-32.7-16.1-49.1-24c-21-10.2-42-20.3-62.8-30.7C2.5,186.2,1.2,185.9,0.7,184.5z"/>
		<path class="st1" d="M0.7,184.5c10.7,5.2,21.3,10.6,32,15.8c8.9,4.3,17.7,8.8,26.7,13.1c13,6.1,25.7,12.9,38.8,18.9
			c7.6,3.5,15,7.5,22.6,11.1c14.4,6.7,28.4,14.2,42.8,20.9c7.6,3.5,15,7.5,22.6,11.1c14.4,6.7,28.4,14.2,42.8,20.9
			c7.6,3.5,15,7.5,22.6,11.1c14.4,6.7,28.5,14.1,42.8,20.9c9.2,4.3,18.3,8.9,27.3,13.4c12.1,6.1,24.4,11.9,36.6,17.8
			c0.4,0.2,0.9,0.3,1.4,0.5c1,0.8,0.8,1.9,0.8,3c0,1.4,0.2,2.8,0.8,4c-1.6,1.3-3,0.2-4.4-0.4c-8.9-4.4-17.7-9.1-26.8-13.3
			c-11.3-5.1-22.1-11.2-33.4-16.3c-11.1-5-21.9-10.8-32.8-16.1c-11-5.3-22-10.8-33.1-16.1c-11.2-5.5-22.3-11-33.6-16.3
			c-10.4-4.9-20.4-10.4-30.9-15.1c-12.3-5.5-24.1-12.1-36.5-17.7c-8.1-3.6-15.8-8-23.8-11.9c-19.3-9.4-38.7-18.8-58-28.2
			c-15.1-7.3-30.1-14.7-45.1-22.1c-1.8-0.9-2.9-2.1-2.7-4.3C0.7,187.7,0.7,186.1,0.7,184.5z"/>
		<path class="st2" d="M361.5,366.9c-1.2,0.1-1.5-0.5-1.5-1.6c0-1.8,0-3.6,0-5.3l0.1,0c3.5-2.7,7.5-4.3,11.4-6.1
			c6.4-2.9,12.5-6.3,18.8-9.3c16.4-7.6,32.3-16.2,48.7-23.7c5.6-2.5,11-5.6,16.6-8.2c12.4-5.6,24.3-12.1,36.6-17.9
			c10-4.7,19.9-9.8,29.9-14.5c11.9-5.6,23.5-11.8,35.4-17.4c10-4.7,19.7-9.7,29.7-14.4c12-5.7,23.6-12,35.7-17.4
			c4.7-2.1,9.3-4.5,14-6.7c18.8-9.2,37.6-18.6,56.5-27.7c7.7-3.7,15.3-7.3,22.9-11.2c0.8-0.4,1.7-1.1,2.8-0.6
			c-0.1,2.6,0.8,5.2-0.8,7.6c-6.9,3.4-13.8,6.9-20.7,10.3c-13.9,6.9-27.8,13.8-41.8,20.5c-10.9,5.2-21.5,10.9-32.4,15.9
			c-10.6,4.8-20.8,10.4-31.3,15.3c-11.2,5.1-22,10.8-33,16.2c-22.2,10.8-44.3,21.7-66.4,32.4c-10.7,5.2-21.2,10.7-32,15.6
			c-10.8,4.9-21.3,10.4-31.9,15.6c-22,10.8-43.9,21.5-65.9,32.3C362.3,366.7,361.9,366.8,361.5,366.9z"/>
		<path class="st3" d="M718.9,184.9c-2,0.9-3.9,1.8-5.9,2.8c-18.8,9.2-37.5,18.4-56.2,27.6c-10.9,5.3-21.8,10.7-32.8,15.8
			c-10.9,5.1-21.5,10.7-32.2,15.9c-11.2,5.4-22.3,11-33.7,16.3c-10.1,4.7-20,9.9-30,14.8c-11.8,5.7-23.5,11.6-35.4,17.2
			c-10.2,4.8-20.1,10-30.2,14.9c-11.7,5.7-23.4,11.5-35.2,17.1c-10.6,4.9-20.9,10.4-31.3,15.5c-11.4,5.5-22.9,11.1-34.3,16.6
			c-0.5,0.3-1.1,0.4-1.6,0.6c-1.2-5.6,1.1-8.6,6.4-10.8c8.1-3.4,15.7-8,23.8-11.6c11-4.9,21.6-10.8,32.5-15.8
			c8.1-3.7,15.9-7.9,23.9-11.7c13.9-6.6,27.7-13.5,41.5-20.2c7.9-3.9,15.8-7.9,23.7-11.7c14-6.7,27.8-13.5,41.8-20.3
			c8.6-4.2,17.1-8.6,25.7-12.7c13.3-6.3,26.5-12.9,39.7-19.3c8.7-4.2,17.2-8.7,25.9-12.8c13.3-6.2,26.3-12.9,39.5-19.2
			c10.5-5,20.8-10.4,31.3-15.4c2.8-1.4,3.1-1.2,3.1,1.9C718.9,181.8,718.9,183.3,718.9,184.9z"/>
	</g>
</g>
</svg>
