<?xml version="1.0" encoding="utf-8"?>
<!-- Generator: Adobe Illustrator 24.1.2, SVG Export Plug-In . SVG Version: 6.00 Build 0)  -->
<svg version="1.1" id="Livello_1" xmlns="http://www.w3.org/2000/svg" xmlns:xlink="http://www.w3.org/1999/xlink" x="0px" y="0px"
	 viewBox="0 0 309.8 383.85" style="enable-background:new 0 0 309.8 383.85;" xml:space="preserve">
<style type="text/css">
	.st0{fill:#E8ECF0;}
	.st1{fill:#ECF2F5;}
	.st2{fill:#C7D1DB;}
	.st3{fill:#A1AAB7;}
	.st4{fill:#7FB5FB;}
	.st5{fill:#5391F8;}
	.st6{fill:#5A85CB;}
	.st7{fill:#62A3FA;}
	.st8{fill:#FEDF7C;}
	.st9{fill:#FEC150;}
</style>
<g>
	<g>
		<path d="M101.63,383.85c-28.99,0-57.98,0-86.96,0c-9.18-2.25-13.1-6.77-14.42-16.63c-0.3-2.24-0.23-4.49-0.23-6.73
			c0-96.16,0-192.32-0.01-288.48c0-3.63,0.12-7.23,1.04-10.78c2.13-8.26,8.57-13.43,17.06-13.65c0.5-0.01,1-0.01,1.5-0.02
			c4.9-0.09,5.05-0.23,5.16-5.05c0.28-11.76,6.89-18.69,18.7-19.62c5.06-0.4,5.06-0.4,5.32-5.35c0.28-5.32,2.11-9.91,5.88-13.79
			c2.45-2.52,5.61-3.02,8.74-3.77c77.22,0,154.44,0,231.66,0c9.66,2.35,13.83,7.29,14.42,18.47c0.54,10.32,0.3,20.69,0.05,31.03
			c-0.09,3.77-1.15,7.23-5.53,8.31c-5.55,0.12-7.68-1.82-7.77-7.5c-0.16-9.96,0.04-19.92-0.09-29.88c-0.07-5.22-1.33-6.94-5.4-8.05
			c-9.74,0.17-19.48,0.07-29.21,0.07c-63.29,0.01-126.59,0-189.88,0.03c-3.16,0-6.67-0.66-8.61,2.99c-0.87,1.48-0.83,3.1-0.83,4.73
			c0,98.17,0,196.34,0.01,294.51c0,6.38,1.64,7.93,8.46,7.93c41.96,0.03,83.93,0.01,125.89,0.01c29.85,0,59.7,0,89.55,0
			c8.7,0,9.95-1.18,9.95-9.95c0.03-60.45,0.01-120.9,0.02-181.35c0-18.48-0.04-36.97,0.03-55.45c0.02-5.41,1.27-7.04,6.04-8.49
			c4.32,0.72,6.45,2.72,7.25,6.82c0.39,1.97,0.29,3.98,0.29,5.98c0,77.54,0,155.09,0.02,232.63c0,3.39-0.25,6.73-1.12,10.02
			c-2.04,7.78-8.11,12.79-16.15,13.35c-0.75,0.05-1.5,0.05-2.25,0.07c-5.06,0.12-5.12,0.2-5.25,5.36
			c-0.27,11.16-6.74,18.26-17.92,19.19c-6.06,0.5-5.86,0.25-6.18,6.17c-0.5,9.25-5.24,14.58-14.54,16.86c-42.23,0-84.47,0-126.7,0
			c-2.22-0.86-3.8-2.26-3.95-4.82c0.22-5.2,2.17-7.25,7.23-7.57c1.62-0.1,3.25-0.05,4.87-0.05c36.36,0,72.72,0,109.08,0
			c1.87,0,3.75,0.07,5.62-0.16c2-0.26,3.5-1.16,4.28-3.14c1.91-4.84,0.34-7.03-5.19-7.03c-61.6-0.01-123.2-0.01-184.8-0.01
			c-4.12,0-8.25,0.08-12.37-0.04c-5.13-0.15-9.86-1.5-13.82-4.97c-4.03-3.83-5.86-8.53-5.86-14.08c0-41.68,0-83.36,0.01-125.04
			c0-3.8,0.45-7.34,4.9-8.61c5.5-0.33,8.17,1.93,8.65,7.3c0.04,0.5,0.07,1,0.07,1.49c0.01,41.77,0.08,83.53-0.02,125.3
			c0.48,3.11,2.64,4.34,5.44,4.81c1.73,0.29,3.49,0.2,5.24,0.2c70.58,0,141.15,0,211.73,0c2,0,4.01,0.13,5.98-0.31
			c2.2-0.5,3.86-1.62,4.42-4.02c1.19-5.16-0.05-6.74-5.54-6.74c-65.45-0.01-130.91-0.02-196.36,0.03c-5.16,0-9.95-0.73-13.94-4.32
			c-4.57-4.26-6.57-9.59-6.57-15.76c-0.02-13.11-0.01-26.22-0.01-39.34c0-77.42,0-154.85,0-232.27c0-1.12,0.06-2.25-0.02-3.37
			c-0.15-2.02,0.46-4.45-2.77-4.77c-3.37-0.34-6.49,1.27-7.21,4.01c-0.48,1.82-0.34,3.72-0.34,5.6c0,46.33,0,92.66,0,138.99
			c0,1.87,0.07,3.75-0.09,5.62c-0.47,5.37-3.18,7.62-8.7,7.27c-3.25-0.9-4.53-3.27-4.78-6.41c-0.13-1.75-0.09-3.5-0.09-5.25
			c0-38.86,0-77.72,0-116.57c0-1.12,0.09-2.26-0.02-3.37c-0.21-2.07,0.73-4.72-2.75-5.16c-4.03-0.51-6.5,0.61-7.61,3.78
			c-0.89,2.53-0.67,5.19-0.67,7.8c-0.01,78.34-0.01,156.68-0.01,235.02c0,17.49,0,34.98,0,52.48c0,2.25-0.03,4.5,0.44,6.72
			c0.8,3.21,3.08,4.32,6.13,4.36c5.49,0.07,10.98,0.03,16.47,0.03c19.22,0.01,38.43,0,57.65,0c1.37,0,2.75-0.04,4.12,0.05
			c5.03,0.33,6.97,2.41,7.15,7.62C105.42,381.64,103.81,382.99,101.63,383.85z"/>
		<path class="st0" d="M61.89,14.98c0.67-2.56,2.6-3.46,4.98-3.72c0.62-0.07,1.25-0.02,1.87-0.02c73.31,0,146.62,0,219.93,0
			c0.87,0,1.74,0.08,2.61,0.12c1.63,1.77,1.22,3.99,1.23,6.07c0.04,16.24,0.02,32.49,0.02,48.73c0,80.34,0,160.68,0,241.02
			c0,10.95-1.68,12.66-12.53,12.66c-70.34,0.01-140.69,0.01-211.03,0c-7.44,0-7.44-0.01-7.44-7.31c0-97.71,0-195.42,0.02-293.12
			C61.55,17.94,61.2,16.42,61.89,14.98z"/>
		<path class="st1" d="M13.08,367.4c-0.68-1.43-0.33-2.95-0.33-4.43c-0.02-98.08-0.02-196.15-0.02-294.23c0-7.85,4.29-11,11.96-8.87
			c0.95,0.26,1.18,0.71,1.16,1.54c-0.01,0.87,0,1.75,0,2.62c0,41.98,0.02,83.96-0.04,125.94c0,3.25,0.54,5.96,3.85,7.34
			c0.93,0.3,1.96,0.5,2.21,1.66c0.59,2.79,0.59,5.6,0,8.39c-0.25,1.17-1.28,1.36-2.21,1.66c-2.89,1.26-3.84,3.51-3.84,6.59
			c0.05,42.18,0.06,84.36,0,126.55c-0.01,5.2,2.03,9.38,5.39,13.1c2,3.41,3.19,7.37,6.77,9.7c0.73,0.48,1.29,1.34,0.72,2.26
			c-0.67,1.07-1.89,1.15-3.01,1.18c-5.99,0.16-11.98,0.05-17.98,0.06C16.09,368.46,14.45,368.52,13.08,367.4z"/>
		<path class="st2" d="M29.65,209.03c2.19-2.57,2.19-9.13,0.01-11.71c5.63,0.19,7.43-1.62,7.43-7.59c0.01-48.47,0-96.94,0-145.41
			c0-7.62,4.25-10.81,11.64-8.83c0.89,0.24,1.27,0.63,1.28,1.49c0.01,1.12,0.02,2.25,0.02,3.37c0,91.69,0.03,183.38-0.06,275.08
			c-0.01,6.2,1.49,11.54,5.94,15.94c1.79,3.81,3.4,7.71,7.46,9.87c1.28,0.68,0.83,1.6-0.41,2.08c-0.82,0.32-1.69,0.38-2.56,0.39
			c-6.57,0.05-13.14,0.05-19.71,0c-1.25-0.01-2.48-0.15-3.45-1.09c-0.05-7.48-0.14-14.95-0.14-22.43
			c-0.02-34.65,0-69.31-0.01-103.96C37.08,210.67,35.15,208.84,29.65,209.03z"/>
		<path class="st2" d="M61.89,14.98c0.02,1.5,0.05,3,0.05,4.49c0,98.08,0,196.16,0,294.24c0,4.9,0,4.9,4.8,4.9
			c71.84,0,143.68,0,215.52,0c7.5,0,9.03-1.51,9.03-8.88c-0.01-99.46-0.01-198.91-0.02-298.37c4.39,0.74,5.67,2.25,5.69,7.11
			c0.05,10.45-0.01,20.91,0.03,31.36c0.02,5.52,1.64,7.13,7.04,7.22c-2.24,1.42-1.38,3.68-1.48,5.66c-0.09,1.83-0.02,3.67-0.02,5.5
			c-5.06,1.72-5.55,2.46-5.55,8.66c0,79.2,0,158.41-0.01,237.61c0,1.37,0.06,2.76-0.09,4.12c-0.38,3.3-2.21,5.2-5.62,5.35
			c-1,0.05-2,0.02-3,0.02c-72.71,0-145.41,0-218.12,0c-7.51,0-8.94-1.44-8.94-8.95c0-98.44,0-196.89,0.02-295.33
			C61.24,18.11,60.77,16.43,61.89,14.98z"/>
		<path class="st3" d="M37.24,342.6c8.67,0,17.34,0,26.99,0c-5.59-2.36-8.33-5.9-8.32-11.24c4.09,3.02,8.66,3.92,13.72,3.91
			c65.96-0.08,131.92-0.07,197.88,0.03c1.67,0,4.53-1.78,5.08,1.7c1.03,6.51-0.34,10.04-4.23,11.04c-1.31,0.33-2.72,0.34-4.08,0.34
			c-72.96,0.01-145.91,0.01-218.87,0.01C39.43,348.38,37.83,347.23,37.24,342.6z"/>
		<path class="st2" d="M13.08,367.4c8.38,0,16.77,0,25.15,0c0.11-0.3,0.22-0.6,0.33-0.9c-4.67-2.39-6.94-6.25-7.35-11.24
			c4.18,3.38,9.01,4.4,14.31,4.39c65.96-0.06,131.93-0.05,197.89,0.05c1.69,0,4.79-1.89,5.04,2.18c0.43,6.84-0.96,9.99-4.94,10.63
			c-1.22,0.2-2.49,0.09-3.74,0.09c-38.6,0-77.21,0-115.81,0c-5.96,0-7.7,1.76-7.44,7.5c-2.6-2.24-9.19-2.25-11.78,0
			c0.3-5.56-1.49-7.49-7.05-7.49c-25.98-0.01-51.95,0-77.93-0.01C15.29,372.6,13.81,371.4,13.08,367.4z"/>
		<path d="M283.87,167.94c0,43.11,0,86.21,0,129.32c0,9.7-4.13,13.78-13.95,13.78c-60.97,0-121.95,0-182.92,0
			c-9.49,0-13.8-4.26-13.8-13.63c0-86.46,0-172.93,0-259.39c0-9.51,4.2-13.77,13.65-13.77c61.1-0.01,122.2-0.01,183.29,0
			c9.59,0,13.72,4.11,13.73,13.63C283.87,81.23,283.87,124.58,283.87,167.94z"/>
		<path class="st4" d="M263,181.38c-3.66-3.91-7.24-7.9-11.02-11.71c-1.92-1.94-4.06-3.71-6.32-5.25
			c-6.39-4.38-10.81-4.38-17.18,0.09c-9.24,6.49-17.03,14.61-24.82,22.7c-12.55,13.03-24.47,26.63-36.36,40.46
			c-5.05-5.85-9.93-11.63-14.95-17.29c-4.3-4.86-8.83-9.5-14.01-13.47c-7.68-5.88-12.2-5.99-19.77-0.06
			c-10.76,8.44-19.6,18.81-28.68,28.92c-1.33,1.48-2.69,2.92-4.04,4.38c-0.58,0.03-0.97-0.24-1.03-0.81
			c-0.1-1.12-0.05-2.25-0.05-3.37c0-61.93,0-123.87,0-185.8c0-5.17-0.48-4.55,4.65-4.56c56.69-0.01,113.38-0.01,170.07-0.01
			c4.95,0,5.27,0.22,5.27,5.29c0.04,45.2,0.04,90.4-0.02,135.61C264.75,178.27,265.21,180.36,263,181.38z"/>
		<path class="st5" d="M85.14,248.95c12.11-14.94,24.56-29.57,39.07-42.28c4.04-3.53,4.24-3.5,8.4,0.03
			c10.15,8.61,18.34,19.03,26.68,29.3c0.94,1.16,1.81,2.39,2.77,3.53c3.2,3.82,6.58,3.8,10.04-0.12
			c9.49-10.77,18.82-21.69,28.44-32.33c9.79-10.83,19.73-21.56,31.03-30.89c5.5-4.54,5.87-4.59,11.11,0.26
			c7.89,7.31,14.77,15.53,20.95,24.32c0.9,2.11,1.16,4.31,1.16,6.59c-0.02,25.24,0.01,50.48-0.02,75.71
			c-0.01,6.99-1.3,8.28-8.38,8.28c-55.22,0.02-110.45,0.02-165.67,0.01c-1.12,0-2.25-0.01-3.37-0.18c-1.71-0.25-2.63-1.02-2.62-2.95
			c0.07-12.87-0.03-25.74,0.08-38.61C84.83,249.4,85.03,249.18,85.14,248.95z"/>
		<path class="st6" d="M85.14,248.95c0,12.49,0.08,24.98-0.08,37.47c-0.04,2.99,0.87,3.78,3.81,3.78
			c56.58-0.08,113.16-0.06,169.74-0.07c4.31,0,4.93-0.65,4.94-5.06c0.04-28.1,0.06-56.21,0.09-84.31c3.2,3.52,5.52,7.68,8.29,11.5
			c0.81,1.12,0.68,2.36,0.68,3.59c0.01,26.84-0.04,53.69,0.07,80.53c0.01,2.91-0.89,3.46-3.6,3.46c-60.3-0.08-120.61-0.07-180.91,0
			c-2.78,0-3.86-0.48-3.83-3.62c0.17-14.61,0.03-29.21,0.06-43.82C84.41,251.25,83.86,249.88,85.14,248.95z"/>
		<path class="st7" d="M263,181.38c0.91-1.09,0.55-2.39,0.55-3.61c0.02-45.85-0.03-91.71,0.1-137.56c0.01-3.63-1.2-4.27-4.47-4.26
			c-56.6,0.09-113.2,0.1-169.79-0.02c-3.52-0.01-4.33,1.04-4.32,4.41c0.1,61.97,0.07,123.94,0.09,185.91c0,1.32-0.48,2.78,0.7,3.91
			c-0.36,0.43-0.58,1.77-1.3,0.58c-0.45-0.74-0.13-1.95-0.13-2.95c0-62.83,0.02-125.66-0.07-188.49c0-3.05,0.7-3.95,3.87-3.95
			c60.2,0.11,120.41,0.11,180.61,0.06c2.7,0,3.88,0.33,3.87,3.56c-0.12,50.34-0.08,100.68-0.1,151.01c0,0.8,0.37,1.71-0.58,2.69
			C268.98,188.88,265.99,185.13,263,181.38z"/>
		<path d="M161.91,86.89c0.1,16.01-12.88,29.18-28.82,29.23c-15.97,0.05-29.15-12.99-29.21-28.91
			c-0.06-15.98,13.01-29.2,28.88-29.23C148.82,57.97,161.8,70.84,161.91,86.89z"/>
		<path class="st8" d="M120.13,99.09c-6.77-6.91-6.7-17.55,0.15-24.51c6.92-7.02,17.61-7.13,24.81-0.25
			c2.54,5.73-0.41,10.47-3.24,14.87c-3.35,5.22-8.14,8.94-14.44,10.33C124.91,100.09,122.5,100.15,120.13,99.09z"/>
		<path class="st9" d="M120.13,99.09c13.38,1.07,22.49-9.19,24.62-18.84c0.44-1.99,0.23-3.95,0.34-5.92
			c7.32,6.94,7.48,18.27,0.34,25.34C138.2,106.84,126.91,106.58,120.13,99.09z"/>
	</g>
</g>
</svg>
