<?xml version="1.0" encoding="utf-8"?>
<!-- Generator: Adobe Illustrator 24.1.2, SVG Export Plug-In . SVG Version: 6.00 Build 0)  -->
<svg version="1.1" id="Livello_1" xmlns="http://www.w3.org/2000/svg" xmlns:xlink="http://www.w3.org/1999/xlink" x="0px" y="0px"
	 viewBox="0 0 241.5 208.5" style="enable-background:new 0 0 241.5 208.5;" xml:space="preserve">
<style type="text/css">
	.st0{fill:#99989C;}
	.st1{fill:#95B0D5;}
	.st2{fill:#C7D0D9;}
	.st3{fill:#616161;}
	.st4{fill:#FEFEFE;}
	.st5{fill:#010101;}
</style>
<g>
	<g>
		<path d="M104.1,97.2c1-5.4,1-5.4,6.9-5.4c24.8,0,49.6,0.1,74.3-0.1c2.8,0,4,0.6,4.7,3.5c4.3,18,8.9,35.9,13.3,53.9
			c0.5,2,1.4,2.5,3.3,2.4c4.5-0.1,9,0,13.4-0.1c1.8-0.1,2.5,0.6,3.1,2.3c5.6,17.1,11.3,34.2,17.1,51.3c0.9,2.7-0.2,2.6-2.1,2.6
			c-6.4-0.1-12.7,0-19.1,0c-53.4,0-106.8,0-160.3,0c-6.2,0-6.2,0-6.6-5.9c-1.7-4.4-0.7-6.1,3.8-6.4c1.5-0.1,3-0.1,4.5-0.1
			c52.5,0,105,0,157.5,0c0.9,0,1.7,0,2.6,0c2.4,0.1,3.1-0.8,2.3-3.1c-1.4-4.1-2.8-8.2-4.1-12.4c-1.2-3.8-2.7-7.5-3.7-11.3
			c-0.9-3.3-2.8-4.5-6.2-4.5c-15.1,0.1-30.1,0.1-45.2,0.1c-1.4,0-2.7,0-4.1,0c-5.3-0.1-5.9-0.7-5.9-6.1c0-0.7-0.1-1.5,0-2.2
			c0.2-4.2,0.9-5,5.1-5.1c8.2-0.1,16.4,0,24.6,0c1,0,2,0,3,0c4.3-0.1,4.6-0.4,3.6-4.5c-2.1-8.8-4.5-17.5-6.5-26.4
			c-1.1-3.6-2.1-7.2-2.8-10.8c-0.7-3.4-2.5-4.6-5.9-4.6c-15.4,0.1-30.8,0.1-46.3,0c-6.8,0-13.7,0.2-20.5-0.1
			C103.2,104,101.9,101.4,104.1,97.2z"/>
		<path d="M41.3,201.8c-0.3,5.9-0.3,5.9-6.5,5.9c-11,0-22.1,0-33.5,0c2.7-8.3,5.3-16.3,7.9-24.2c3.2-9.7,6.5-19.4,9.7-29.1
			c0.7-2,1.6-2.9,3.9-2.8c4.3,0.2,8.7-0.1,13.1,0.1c2,0.1,2.8-0.7,3.2-2.6c4.4-17.9,9-35.9,13.4-53.8c0.6-2.7,1.6-3.5,4.3-3.5
			C66.8,92,77,91.9,87.2,91.9c5.3,0,5.3,0,5.8,5.2c1.8,5.2,0.6,7.1-4.7,7.1c-6.7,0.1-13.4,0-20.1,0c-5.3,0-5.4,0.1-6.7,5.4
			c-0.9,3.5-1.7,7-2.7,10.4c-1.9,8.6-4.2,17.1-6.3,25.7c-1,4.3-0.8,4.7,3.8,4.7c26.2,0,52.5,0,78.7,0c0.9,0,1.7,0,2.6,0
			c6.7,0,7.2,0.6,7.1,7.3c0,5.6-0.7,6.3-6.6,6.3c-33.7,0-67.4,0-101.1,0c-1.4,0-2.7,0-4.1,0c-3.6,0.1-7.1,4.3-6.7,7.8
			c0.2,1.6,1.5,1,2.3,1c8,0,15.9,0,23.9,0c1.4,0,2.7,0,4.1,0c5.3,0.1,5.9,0.8,6,6.1c0,0.7,0.1,1.5,0,2.2c-0.2,4.1-1,5-5.2,5.1
			c-9.1,0.1-18.1,0-27.2,0.1c-1.9,0-3.7,0-5.6,0c-1.5,0.1-3.1,0.3-3.8,1.9c-0.9,2-2.6,4.2-1.6,6.2c0.9,1.6,3.4,0.7,5.2,0.7
			c4.2,0.1,8.5-0.1,12.7,0.1C42,195.5,43,197.2,41.3,201.8z"/>
		<path class="st0" d="M41.3,201.8c-0.3-5.3-0.3-5.3-5.7-5.3c-6.1,0-12.2,0-18.6,0c0.5-3.6,2-6.7,3-9.9c0.6-1.9,2.2-1.3,3.4-1.3
			c10.6-0.1,21.2,0,31.7,0c5.9,0,5.9,0,6.4-5.9c3.8-1.9,7.5-1.9,11.2,0.1c1.1,2.3,1.3,5.2,5.2,4.8c2.9-0.3,5.1-0.4,5.2-4
			c0-0.6,0.4-1.1,1-1.5c3.6-1,7.1-1,10.7,0c0.5,0.3,1,0.9,1,1.5c0.1,3.5,2.2,4.1,5.2,4c2.5-0.1,4.4-0.5,4.5-3.5
			c0-0.9,0.5-1.6,1.3-2.1c1.4-0.6,2.9-0.6,4.4-0.6c34.4,0,68.9,0,103.3,0c1.8,0,3.8-0.2,5.3,1.3c2,5.6,3.9,11.2,6.1,17.1
			c-2,0-3.5,0-5,0c-54.3,0-108.5,0-162.8,0c-5.5,0-5.5,0-5.8,5.3C48.6,201.8,45,201.8,41.3,201.8z"/>
		<path class="st1" d="M57.8,119.6c1.1-4.6,2.4-9.1,3.3-13.7c0.5-2.3,1.4-3,3.7-2.9c7.4,0.1,14.9,0.1,22.3,0.1c5.8,0,5.8,0,5.9-5.9
			c3.7,0.1,7.4,0.1,11.1,0.1c0.3,5.8,0.3,5.8,6.2,5.8c22.3,0,44.5,0.1,66.8-0.1c2.6,0,3.7,0.6,4.2,3.3c0.8,4.5,2.1,8.9,3.2,13.4
			c-4.8,2-9.7,1.3-14.5,0.4c-1.4-1.3-2.3-3.1-4.7-3.2c-4.9-0.2-5.6,0.3-5.6,5.3c0,3.2,0,6.5,0,9.7c0,5.2,0,5.1,5.1,5.3
			c1.8,0.1,3.8-0.5,5.1,1.3c-2.2,1.7-9.5,2.3-11.6,0.9c-1.4-0.9-1.6-2.5-1.6-4c-0.2-3.7-0.1-7.4-0.1-11.2c0-2.5-1.1-3.5-3.6-3.6
			c-3.8-0.1-7.7,0.7-11.4-0.7c-1.4-1.1-2.1-2.9-4.4-3.1c-5.1-0.4-5.9,0.2-6,5.3c0,3.9,0.1,7.7,0,11.6c-0.1,3,1.7,3.4,4.1,3.4
			c2.4,0,4.2-0.4,4.2-3.4c0-3.2-0.2-6.5,0.1-9.7c0.1-1.1-0.6-3.3,2.1-2.7c1.6,5.3,0.7,10.6,0.5,15.9c0,0.2-0.1,0.5-0.2,0.7
			c-2.7,3.7-6.5,1.9-9.9,2.1c-2.6,0.1-3.7-1.6-3.8-4.1c-0.2-3.7-0.1-7.4-0.1-11.2c0-2.8-1.1-4-4-4c-11.6,0.1-9.9-1.1-10.1,9.4
			c0,0.6,0,1.2,0,1.9c0,7.6-4.6,10.5-11.9,7.8c-1.3-0.5-2.1-1.4-2.2-2.7c-0.2-5.2-0.9-10.4,0.5-15.5c1.9,0.2,2.1,0.2,2.2,2.3
			c0.3,3.1,0,6.2,0.1,9.3c0.1,3.5,0.7,3.9,4.2,4c3.1,0.1,4.2-1.2,4.1-4.2c-0.2-3.8,0-7.7-0.1-11.5c0-1.5,0.6-3.6-1.4-4.2
			c-2.3-0.6-4.9-1-7.1,0.7c-0.7,0.5-0.9,1.4-1.7,2c-3.5,1.4-7.1,0.6-10.7,0.7c-4.1,0.2-4.4,0.4-4.4,4.6c-0.1,3.5,0,6.9-0.1,10.4
			c-0.1,2.9-1.4,4.5-4.3,4.4c-3-0.1-6.2,1.1-8.8-1.4c1.4-2.3,3.7-1.4,5.7-1.5c4.3-0.2,4.5-0.3,4.5-4.4c0-3.7,0.1-7.5,0-11.2
			c0-1.5,0.6-3.6-1.4-4.2c-2.3-0.7-4.9-1.1-7.1,0.7c-0.7,0.5-0.9,1.4-1.7,2C67.5,120.9,62.6,121.6,57.8,119.6z"/>
		<path d="M115.9,0.7c3.5,0,7,0,10.5,0c23,1.5,42.9,10,59.9,25.6c1.8,1.7,2,2.7,0.1,4.2c-2,1.7-3.6,4.7-5.8,5
			c-1.6,0.2-3.7-2.9-5.6-4.5c-17.7-14.4-37.9-21-60.8-19.2c-19.7,1.6-36.5,9.3-50.9,22.6c-1.4,1.3-2.1,1.4-3.5,0
			c-6.4-6.2-6.5-6.2,0.3-11.9C76.3,9.2,94.9,2,115.9,0.7z"/>
		<path d="M121.1,30.5c16.6,0,31,5.7,43.5,16.5c2.1,1.8,2.4,3,0.2,5.1c-5.2,4.8-5,5-10.4,0.8c-20.9-16.2-49.7-15.2-69.4,2.4
			c-1.8,1.6-2.7,1.6-4.4-0.1c-6-6-6.1-6,0.8-11.3C93.1,35,106.4,30.5,121.1,30.5z"/>
		<path d="M118.6,60.5c11.3,0,18.9,2.9,25.6,8.4c1.5,1.3,2,2.2,0.2,3.7c-1.9,1.6-3.3,4.2-5.4,5c-2.5,1-3.9-2.3-6.1-3.3
			c-9.4-4.4-18.3-4-26.6,2.3c-1.9,1.4-3.1,1.8-4.5-0.3c-0.3-0.5-0.9-0.9-1.3-1.3c-4.7-4.7-4.7-4.7,0.8-8.5
			C107.3,62.4,113.9,60.4,118.6,60.5z"/>
		<path class="st2" d="M141.2,119.6c4.4,0,8.9,0.1,13.4,0c2.5-0.1,3.2,0.8,3.1,3.2c-0.1,4.4,0.1,8.9-0.1,13.3
			c-0.1,2.3,0.9,3.3,3,2.9c2.9-0.5,6.1,1.1,8.8-0.9c-1.6-6.2-1.8-12.3,0.1-18.5c4.9,0,9.8,0,14.8,0c2.5,9.7,4.9,19.5,7.5,29.2
			c0.6,2.3,0.1,3-2.4,2.9c-10.1-0.1-20.1,0.1-30.2-0.1c-3.6-0.1-5.4,0.6-4.6,4.5c0.1,0.5-0.1,1-0.1,1.5c-3.6,1.9-7.3,2-10.9,0
			c-0.3-5.9-0.3-5.9-6.2-5.9c-28,0-56,0-84,0.1c-2.8,0-3.9-0.3-3-3.6c2.7-9.4,4.9-19,7.3-28.5c4.9,0,9.8,0,14.8,0
			c1,0.9,1.2,2.2,1.1,3.4c-0.3,5,1.1,10.1-0.9,15c3.4,2.1,7.1,0.7,10.7,0.8c1.5,0,1.2-1.7,1.2-2.7c0-4.4,0.1-8.9,0-13.3
			c-0.1-2.4,0.7-3.3,3.1-3.2c4.4,0.2,8.9,0,13.3,0c0.3,0.4,0.4,0.9,0.1,1.4c-0.1,5.2-0.1,10.4-0.2,15.7c0,0.3-0.1,0.6,0.1,0.7
			c2.6,3.6,6.3,1,9.5,1.6c1.9,0.4,2.6-0.7,2.6-2.6c-0.1-4.6,0.1-9.2-0.1-13.8c-0.1-2.2,0.6-3.1,2.9-3c3.5,0.2,7,0.2,10.4,0
			c2.3-0.1,3,0.8,3,3c-0.1,4.5,0.1,9-0.1,13.4c-0.1,2.2,0.7,3,3,3.1c9.2,0.3,9.2,0.4,9.1-8.8c0-3.1-0.1-6.2-0.2-9.3
			C140.9,120.4,140.9,120,141.2,119.6z"/>
		<path class="st3" d="M143.7,157.5c3.6,0,7.3,0,10.9,0c0.3,5.3,0.3,5.3,5.9,5.3c16.7,0,33.4,0.1,50.1-0.1c3.1,0,4.4,1,5.2,3.8
			c1.1,4.3,2.6,8.5,3.9,12.8c-36.8,0-73.6,0-110.4,0c-1,0-2-0.1-3-0.1c-1.1-2.9-2.9-4.3-6.4-4.3c-3.6-0.1-3.6,2.6-5,4.3
			c-3.7,0-7.3,0.1-11,0.1c-1.3-2-1.8-4.3-5.3-4.5c-4.4-0.2-4.8,2.6-6.1,5.2c-3.6-1.6-7.3-0.4-11-0.7c0-0.7-0.2-1.5-0.1-2.2
			c0.3-2.5-0.7-3.1-3.1-3.1c-10.4,0.1-20.9,0.1-31.3,0c-0.7,0-1.5-0.1-2.6-0.1c1.1-3.4,2.1-6.5,3.2-9.7c0.6-1.8,2.1-1.4,3.4-1.4
			c8,0,15.9,0,23.9,0c27.7,0,55.5,0,83.2,0C143.4,162.9,143.4,162.9,143.7,157.5z"/>
		<path d="M72.4,180.1c0.2-6.1,0.2-6.1,6.1-6.1c5,0,5,0,5.4,5.3c-0.4,5.9-0.4,5.9-6.2,5.9C72.6,185.3,72.6,185.3,72.4,180.1z"/>
		<path class="st4" d="M94.9,179.3c0-1,0.2-2,0.1-2.9c-0.2-1.8,0.6-2.4,2.3-2.3c1.2,0.1,2.5,0,3.7,0c5.1,0,5.1,0,5.3,5.2
			c-0.2,6-0.2,6-6.1,6C95.1,185.3,95.1,185.3,94.9,179.3z"/>
		<path class="st5" d="M72.7,138c-0.1-6.2-0.1-12.3-0.2-18.5c-0.3-3.1,1.3-3.8,4.2-3.7c7.2,0.2,7.2,0.1,7.2,7.2
			c0,4.2-0.1,8.4,0,12.6c0.1,2.2-0.7,2.8-2.8,2.7C78.4,138.1,75.6,138.1,72.7,138z"/>
		<path class="st5" d="M169.7,119.6c-0.1,6.2-0.1,12.3-0.1,18.5c-3.1,0.1-6.2,0.1-9.3,0.3c-1.8,0.1-2-0.9-2-2.3c0-5.9,0-11.9,0-17.8
			c0-0.6,0-1.7,0.3-1.7c3.1-1.1,6.3-0.5,9.5-0.5C170.4,116.1,169,118.4,169.7,119.6z"/>
		<path class="st5" d="M101.1,120.9c0-0.5,0-0.9-0.1-1.4c-0.2-3.1,1.3-3.8,4.3-3.7c7.2,0.2,7.2,0.1,7.2,7.2c0,4.2,0,8.4,0,12.6
			c0,0.9,0.5,2.4-0.8,2.5c-3.1,0.2-6.2,0.2-9.3,0c-1.3-0.1-0.9-1.6-0.9-2.5C101.2,130.8,101.2,125.9,101.1,120.9z"/>
		<path class="st5" d="M141.2,119.6c0,0.5,0,0.9-0.1,1.4c-0.1,4.9-0.3,9.9-0.3,14.8c0,1.8-0.4,2.6-2.4,2.7c-8.7,0.4-8.7,0.5-8.7-8.3
			c0-3.7,0.1-7.4-0.1-11.1c-0.2-2.6,0.8-3.3,3.2-3.1c1.5,0.2,3,0.2,4.4,0C140.3,115.4,141.4,116.8,141.2,119.6z"/>
	</g>
</g>
</svg>
