<?xml version="1.0" encoding="utf-8"?>
<!-- Generator: Adobe Illustrator 24.1.2, SVG Export Plug-In . SVG Version: 6.00 Build 0)  -->
<svg version="1.1" id="Livello_1" xmlns="http://www.w3.org/2000/svg" xmlns:xlink="http://www.w3.org/1999/xlink" x="0px" y="0px"
	 viewBox="0 0 338.47 408.14" style="enable-background:new 0 0 338.47 408.14;" xml:space="preserve">
<style type="text/css">
	.st0{fill:#C8CDD0;}
	.st1{fill:#394F63;}
	.st2{fill:#668791;}
	.st3{fill:#445C71;}
	.st4{fill:#4F6F7F;}
	.st5{fill:#A4B3B3;}
	.st6{fill:#A5B3B3;}
	.st7{fill:#74E0C4;}
	.st8{fill:#73E0C4;}
	.st9{fill:#658791;}
</style>
<g>
	<g>
		<path class="st0" d="M192.42,407.39c-0.04,0.25-0.06,0.5-0.04,0.75c-0.53,0-1.06,0-1.6,0c-4.39-4.39-10.09-6.82-15.47-9.48
			c-5.99-2.96-8.46-6.63-7.81-13.47c0.74-7.77,0.23-15.67,0.26-23.51c1.25-0.68,2.32-0.05,3.34,0.54
			c6.07,3.51,12.21,6.91,18.24,10.48c1.5,0.89,2.94,1.85,3.23,3.79C192.85,386.79,193.18,397.09,192.42,407.39z"/>
		<path class="st1" d="M0.68,77.43c19.7-11.43,39.38-22.89,59.09-34.3c24.31-14.06,48.66-28.05,72.93-42.18
			c2.1-1.22,3.52-1.29,5.67-0.05c65.91,37.91,131.87,75.74,197.84,113.56c1.29,0.74,2.23,1.32,2.22,3.2
			c-0.12,19.94-0.11,39.87-0.13,59.81c-0.64,1.71-1.9,2.77-3.45,3.67c-42.38,24.52-84.86,48.87-127.19,73.48
			c-1.36,0.79-2.7,1.74-4.44,1.43c-2.11-1.37-1.47-3.56-1.48-5.45c-0.06-12.37-0.17-24.74,0.03-37.11
			c0.09-5.61-0.86-11.13-0.89-16.71c-0.01-2.17-1.33-3.28-3.04-4.28c-21.03-12.25-42.2-24.25-63.29-36.38
			c-35.51-20.41-71.01-40.82-106.56-61.16c-7.85-4.49-15.62-9.11-23.49-13.56C2.9,80.51,0.58,80.06,0.68,77.43z"/>
		<path class="st2" d="M0.7,250.27c-0.13-1.04-0.37-2.09-0.37-3.13C0.2,199.7,0.1,152.26,0,104.82c0-0.79,0.11-1.58,0.17-2.38
			c2.28,0.78,1.63,2.78,1.65,4.33c0.09,9.3,0.2,18.6-0.03,27.89c-0.09,3.79,1.16,6.1,4.48,7.98c23.89,13.6,47.71,27.33,71.54,41.02
			c38.46,22.09,76.96,44.13,115.38,66.29c2.3,1.33,4.67,2.54,6.9,3.99c1.38,0.89,2.59,1.87,2.89,3.62c0.05,0.54,0.07-0.13,0.07,0.4
			c0.03,19,1.48,37.98,0.93,57c-0.02,0.8-0.07,1.59-0.25,2.37c-0.1,0.44-0.28,0.86-0.53,1.24c-1.85,1.48-3.28-0.02-4.67-0.82
			c-16.59-9.53-33.23-18.99-49.82-28.53c-35.6-20.47-71.19-40.96-106.84-61.33c-11.65-6.66-23.22-13.47-34.91-20.07
			c-1.48-0.83-2.81-2-4.63-2.17c-0.84,1.26-0.44,2.62-0.44,3.91c-0.03,11.83,0.01,23.66-0.05,35.49
			C1.82,246.83,2.37,248.82,0.7,250.27z"/>
		<path class="st3" d="M201.99,256.47c-12.7-7.41-25.38-14.87-38.12-22.22c-20.33-11.72-40.71-23.37-61.06-35.06
			c-17.25-9.9-34.49-19.81-51.74-29.72c-16.1-9.25-32.17-18.54-48.31-27.71c-1.94-1.1-1.93-2.61-1.93-4.36
			c0-10.24,0-20.48-0.05-30.72c-0.01-1.42,0.44-2.94-0.61-4.23c-0.04-7.49-0.1-14.98-0.12-22.48c0-0.88-0.28-1.87,0.64-2.54
			c6.11,4.93,13.26,8.18,19.97,12.12c17.25,10.12,34.64,20,51.99,29.95c15.17,8.7,30.36,17.36,45.53,26.06
			c17.23,9.88,34.45,19.8,51.68,29.69c9.65,5.54,19.25,11.17,28.99,16.54c2.31,1.27,3.01,2.68,3.2,5.25
			c1.37,18.43,0.41,36.89,0.72,55.33c0.02,1.16-0.33,2.43,0.8,3.34C203.54,256.99,202.91,257.04,201.99,256.47z"/>
		<path class="st3" d="M0.7,250.27c0.07-14.08,0.14-28.17,0.21-42.25c0.01-1.42,0-2.84,0-4.85c11.28,6.47,22.06,12.64,32.83,18.82
			c17.24,9.9,34.47,19.81,51.71,29.71c17.24,9.9,34.47,19.82,51.71,29.71c17.01,9.77,34.01,19.56,51.07,29.24
			c4.82,2.74,9.36,5.98,14.54,8.09c1.18,1.12,1.23,2.62,1.24,4.07c0.07,18.21,0.09,36.43-0.01,54.64c0,0.8-0.11,1.59-0.33,2.36
			c-0.53,1.64-1.72,1.97-3.11,1.25c-3.15-1.62-6.52-2.93-8.93-5.73c-7.95-4.56-15.9-9.12-23.85-13.68
			c-19.75-11.41-39.48-22.86-59.27-34.21c-14.84-8.51-29.74-16.9-44.62-25.34c-3.63-0.69-6.41-3.09-9.49-4.84
			c-6.21-3.55-12.39-7.15-18.65-10.61c-6.91-3.63-13.46-7.87-20.32-11.59c-1.27-0.69-2.54-1.45-3.32-2.76
			c-0.09-0.1-0.15-0.23-0.26-0.3c-3.66-2.26-9.1-3.73-10.55-6.98C-0.57,260.86,0.75,255.26,0.7,250.27z"/>
		<path class="st1" d="M202.76,380.97c0-20.74,0-41.48,0-62.22c0,0-0.03-0.03-0.03-0.03c4.29-4.54,10.1-6.78,15.33-9.81
			c37.24-21.53,74.49-43.04,111.76-64.52c2.53-1.46,4.76-4.54,8.46-3.04c0.05,19.92,0.07,39.84,0.2,59.76
			c0.01,1.9-0.72,2.83-2.29,3.67c-3.03,1.63-5.95,3.45-8.92,5.2c-3.92,3.84-9.08,5.75-13.61,8.63c-3,1.9-6.26,3.36-9.13,5.49
			c-5.76,2.95-10.83,7.22-17.2,8.99c-24.46,14.11-48.92,28.23-73.38,42.34C210.64,378.14,207.64,381.46,202.76,380.97z"/>
		<path class="st4" d="M338.28,241.35c-4.28,0.82-7.59,3.63-11.21,5.72c-31.69,18.25-63.3,36.65-94.96,54.96
			c-9.75,5.64-19.59,11.13-29.38,16.69c0-10.72,0.56-21.48-0.14-32.16c-0.66-10.05-0.42-20.07-0.6-30.1c0.65,0,1.23-0.14,1.57-0.77
			c16.65-9.6,33.3-19.2,49.94-28.79c16.53-9.53,33.06-19.07,49.6-28.59c10.8-6.21,21.62-12.39,32.41-18.62
			c1.02-0.59,1.87-1.48,2.8-2.22C338.3,198.76,338.29,220.06,338.28,241.35z"/>
		<path class="st0" d="M12.11,272.31c8.15,4.22,16.05,8.87,23.86,13.68c0.69,0.84,1.13,1.81,1.13,2.89
			c0.02,9.71,0.56,19.43-0.3,29.14c-0.5,0.61-1.03,0.62-1.71,0.21c-6.95-4.11-13.88-8.25-20.89-12.25
			c-1.61-0.92-2.19-1.98-2.17-3.79C12.11,292.22,12.09,282.26,12.11,272.31z"/>
		<path class="st5" d="M202.76,380.97c4.25-0.8,7.21-4.19,11.19-5.53c-0.01,5.44-0.16,10.89,0.04,16.32
			c0.09,2.49-0.85,3.87-2.92,5.02c-6.26,3.47-12.44,7.07-18.65,10.62c-1.17-0.88-0.85-2.15-0.85-3.31c0-9.58,0.03-19.15,0.05-28.73
			C195.33,377.22,199.04,379.1,202.76,380.97z"/>
		<path class="st5" d="M36.8,318.01c-1.17-0.87-0.86-2.15-0.86-3.31c-0.01-9.57,0.01-19.14,0.03-28.71
			c9.64,4.8,18.94,10.18,27.92,16.13C55.17,307.96,45.87,312.79,36.8,318.01z"/>
		<path class="st6" d="M304.1,323.47c7.36-5.12,15.25-9.32,23.17-13.49c-0.05,5.31-0.11,10.62-0.16,15.93
			c-0.02,2.06-0.3,3.98-2.34,5.14c-6.46,3.67-12.9,7.37-19.35,11.05c-0.48,0.27-0.97,0.44-1.37-0.13
			C302.07,335.8,302.15,329.63,304.1,323.47z"/>
		<path class="st0" d="M304.1,323.47c-0.02,6.17-0.04,12.33-0.06,18.5c-5.57-2.96-11.14-5.92-16.71-8.88
			C292.92,329.89,298.51,326.68,304.1,323.47z"/>
		<path class="st7" d="M19.95,183.01c-0.33-3.18,0.6-6.25,4.04-7.93c3.53-1.72,6.44,0.14,9.03,2.26c4.84,3.97,8.1,9,9.64,15.13
			c0.63,2.51,0.7,4.94-0.22,7.39c-1.41,3.77-4.3,5.24-8.1,4.08C26.88,201.66,20.01,191.86,19.95,183.01z"/>
		<path class="st3" d="M142.09,250.07c0,3.19,0.08,6.38-0.02,9.57c-0.12,3.69-2.76,6.52-5.77,6.37c-2.9-0.14-5.3-2.86-5.35-6.38
			c-0.09-6.64-0.04-13.29-0.02-19.93c0.01-3.44,1.83-5.66,5.16-5.97c3.49-0.33,5.51,1.94,5.8,5.21c0.32,3.69,0.07,7.43,0.07,11.14
			C142.01,250.07,142.05,250.07,142.09,250.07z"/>
		<path class="st3" d="M110.96,232.19c0,3.32,0.06,6.64-0.02,9.96c-0.08,3.46-1.84,5.43-5.39,5.56c-3.57,0.13-5.67-1.81-5.73-5.6
			c-0.11-6.77-0.04-13.54-0.03-20.31c0-3.45,1.92-5.44,5.15-5.95c2.9-0.46,5.57,2.2,6,5.59c0.03,0.26,0.02,0.53,0.02,0.8
			C110.96,225.55,110.96,228.87,110.96,232.19z"/>
		<path class="st3" d="M162.05,267.21c0-3.18,0.01-6.36-0.01-9.54c-0.02-3.4,1.44-5.58,4.98-5.95c2.99-0.31,5.98,2.07,6.09,5.43
			c0.23,7.15,0.31,14.31-0.02,21.45c-0.14,2.96-2.29,5.11-5.59,4.98c-3.21-0.13-5.14-2.16-5.38-5.24
			C161.85,274.65,162.06,270.92,162.05,267.21z"/>
		<path class="st3" d="M188.41,276.88c0,3.31,0.04,6.62-0.01,9.93c-0.06,3.87-1.63,5.55-5.09,5.59c-3.47,0.04-5.52-1.71-5.25-5.36
			c0.55-7.38-1.54-14.7-0.12-22.09c0.63-3.3,2.7-4.47,5.58-4.39c2.91,0.07,4.68,1.91,4.81,4.8c0.18,3.83,0.04,7.68,0.04,11.52
			C188.39,276.88,188.4,276.88,188.41,276.88z"/>
		<path class="st3" d="M157.25,258.52c0,3.85,0.16,7.72-0.05,11.56c-0.16,2.91-2.04,4.61-4.95,4.71c-2.91,0.1-5.28-1.51-5.2-4.35
			c0.21-7.66-1.31-15.29-0.21-22.95c0.49-3.43,2.48-4.8,5.76-4.56c3.23,0.23,4.69,2.07,4.68,5.24c-0.02,3.46,0,6.91,0,10.37
			C157.26,258.52,157.25,258.52,157.25,258.52z"/>
		<path class="st3" d="M126.14,240.89c0,3.71,0.12,7.43-0.04,11.14c-0.12,2.76-1.78,4.24-4.58,4.5c-2.74,0.26-5.5-0.89-5.49-3.36
			c0.03-7.9-1.6-15.78-0.32-23.69c0.53-3.25,2.43-5.26,5.65-4.79c2.97,0.43,4.81,2.55,4.79,5.85
			C126.12,234,126.14,237.45,126.14,240.89z"/>
		<path class="st8" d="M19.74,120.71c-0.01-3.1,0.28-6.03,3.16-7.8c3.02-1.85,5.99-0.92,8.61,0.84c7.08,4.74,10.94,11.6,11.41,19.97
			c0.39,6.93-5.29,10.21-11.33,6.6C24.27,135.96,20.73,129.01,19.74,120.71z"/>
		<path class="st2" d="M126.13,178.42c0,3.44,0.03,6.89-0.01,10.33c-0.04,3.08-1.57,5.01-4.66,5.43c-3.13,0.43-4.88-1.19-5.89-4.06
			c-0.78-2.22-0.55-4.45-0.57-6.68c-0.05-5.03-0.14-10.07,0.03-15.1c0.12-3.7,2.79-6.21,5.95-6.04c3.43,0.19,5.09,2.14,5.15,6.18
			C126.18,171.8,126.14,175.11,126.13,178.42z"/>
		<path class="st2" d="M142.08,186.22c0,3.48-0.07,6.13,0.02,8.78c0.06,1.64-0.28,3.18-0.87,4.65c-1.08,2.7-3.17,3.71-6.03,3.37
			c-2.96-0.35-4.16-2.43-4.21-4.93c-0.17-7.29-0.13-14.58-0.03-21.87c0.04-2.91,1.74-4.66,4.61-5.07c2.92-0.42,4.77,0.97,5.77,3.69
			C142.82,178.82,141.63,182.98,142.08,186.22z"/>
		<path class="st2" d="M162.04,204.93c0-3.31,0.12-6.63-0.03-9.94c-0.17-3.68,1.93-5.56,5.08-5.9c2.94-0.32,4.74,1.56,5.56,4.53
			c1.01,3.68,0.37,7.38,0.52,11.06c0.13,3.18,0.12,6.37,0.01,9.54c-0.16,4.4-2.55,7.14-5.95,7.04c-2.96-0.08-5.17-3.14-5.18-7.19
			C162.04,211.02,162.04,207.98,162.04,204.93z"/>
		<path class="st2" d="M188.39,214.17c0,3.31-0.04,6.62,0.01,9.93c0.05,3.3-1.77,5.43-4.7,5.91c-3.08,0.5-5.51-1.22-5.95-4.48
			c-1.02-7.62-0.83-15.3-0.14-22.92c0.3-3.29,2.93-4.84,6.4-4.39c3.36,0.43,4.26,2.78,4.35,5.63
			C188.47,207.28,188.38,210.73,188.39,214.17z"/>
		<path class="st2" d="M99.79,169.16c0-3.46,0.05-6.92-0.02-10.37c-0.06-2.8,1.18-4.65,3.88-5.2c2.9-0.59,5.29,0.33,6.44,3.29
			c0.43,1.1,0.79,2.3,0.8,3.46c0.08,6.12,0.17,12.24,0,18.35c-0.12,4.19-2.57,6.76-5.85,6.74c-3.08-0.02-5.22-2.91-5.25-7.1
			c0-0.53,0-1.06,0-1.6C99.79,174.22,99.79,171.69,99.79,169.16z"/>
		<path class="st2" d="M157.26,196.32c0,3.46-0.02,6.91,0.01,10.37c0.03,2.8-1.3,4.56-4.02,5.07c-2.77,0.52-5.05-0.39-6.22-3.09
			c-0.68-1.57-0.98-3.27-0.95-5.04c0.08-5.18,0.04-10.37,0.01-15.56c-0.01-1.48,0.21-2.88,0.68-4.29c0.94-2.85,3.08-4.19,5.78-3.77
			c2.62,0.41,4.56,2.25,4.67,5.15C157.36,188.87,157.25,192.6,157.26,196.32z"/>
		<path class="st7" d="M43.15,257.03c-0.05,9.03-5.3,12.23-11.44,8.29c-7.39-4.74-11.53-11.7-11.65-20.56
			c-0.09-6.69,5.04-9.71,10.86-6.34C38.58,242.87,42.18,250.06,43.15,257.03z"/>
		<path class="st2" d="M110.97,294.81c0,3.32-0.06,6.65,0.02,9.97c0.09,3.48-2.1,5.27-4.96,5.76c-2.96,0.51-5.25-1.23-5.67-4.31
			c-1.05-7.78-0.85-15.6-0.12-23.39c0.3-3.14,2.63-4.67,5.6-4.41c3.15,0.28,5.01,2.36,5.1,5.61
			C111.04,287.63,110.96,291.22,110.97,294.81z"/>
		<path class="st2" d="M173.22,330.25c0,3.58-0.01,7.15,0,10.73c0.01,2.62-1.32,4.37-3.8,4.81c-2.54,0.45-5.09,0.26-6.38-2.65
			c-0.54-1.22-1-2.41-0.99-3.79c0.04-6.23-0.04-12.45,0.03-18.68c0.04-3.77,2.44-6.58,5.45-6.67c3.11-0.09,5.67,2.91,5.7,6.71
			C173.24,323.89,173.22,327.07,173.22,330.25z"/>
		<path class="st9" d="M158.02,320.94c0,3.63,0.15,6.55-0.03,9.46c-0.29,4.64-2.7,7.01-6.54,6.7c-2.79-0.22-4.48-1.77-4.52-4.53
			c-0.11-7.42-0.1-14.84-0.01-22.26c0.03-2.91,1.72-4.82,4.6-5.03c2.88-0.21,4.97,0.96,5.84,4.14
			C158.47,313.48,157.73,317.58,158.02,320.94z"/>
		<path class="st2" d="M142.1,312.53c0,3.32-0.01,6.64,0,9.96c0.01,3.25-1.45,5.35-4.76,5.78c-3.42,0.45-5.09-1.53-5.94-4.55
			c-0.95-3.4-0.33-6.87-0.44-10.3c-0.12-3.58-0.12-7.18,0-10.76c0.13-3.79,2.62-6.38,5.76-6.27c3.16,0.11,5.33,2.74,5.37,6.57
			C142.12,306.16,142.1,309.35,142.1,312.53z"/>
		<path class="st9" d="M115.75,302.98c0-3.46,0.01-6.91,0-10.37c-0.01-2.81,1.4-4.52,4.13-4.95c2.96-0.47,5.52,0.48,6.16,3.6
			c1.6,7.73,1.11,15.58,0.44,23.37c-0.29,3.37-2.8,5.38-6.14,4.77c-2.91-0.53-4.71-2.71-4.61-6.04
			C115.84,309.89,115.75,306.43,115.75,302.98z"/>
		<path class="st9" d="M178.01,339.14c0-3.59,0-7.18,0-10.77c0-3.28,2.21-4.98,4.9-5.35c2.54-0.36,4.84,1.46,5.32,3.93
			c1.53,7.86,1.39,15.81,0.26,23.72c-0.47,3.29-2.77,5.09-5.89,4.48c-2.87-0.56-4.81-2.57-4.63-6.03
			C178.15,345.79,178.01,342.46,178.01,339.14z"/>
	</g>
</g>
</svg>
