<?xml version="1.0" encoding="utf-8"?>
<!-- Generator: Adobe Illustrator 24.1.2, SVG Export Plug-In . SVG Version: 6.00 Build 0)  -->
<svg version="1.1" id="Livello_1" xmlns="http://www.w3.org/2000/svg" xmlns:xlink="http://www.w3.org/1999/xlink" x="0px" y="0px"
	 viewBox="0 0 408.51 408.5" style="enable-background:new 0 0 408.51 408.5;" xml:space="preserve">
<style type="text/css">
	.st0{fill:#FEC851;}
	.st1{fill:#FEC750;}
	.st2{fill:#F8B328;}
</style>
<g>
	<g>
		<path class="st0" d="M0,202.58c2.06-4.45,6.12-4.54,10.14-4.55c13.54-0.03,27.09-0.07,40.63,0.01c7.43,0.05,14.87-0.43,22.29,0.31
			c4.2,0.42,6.78,2.74,6.44,6.02c-0.39,3.7-2.63,5.6-6.44,5.65c-4.51,0.05-9.02,0.29-13.52,0.3c-16.46,0.04-32.93,0.03-49.39,0
			c-4.02-0.01-8.08-0.1-10.14-4.55C0,204.71,0,203.65,0,202.58z"/>
		<path class="st0" d="M202.72,408.5c-4.45-2.06-4.54-6.12-4.55-10.14c-0.03-13.54-0.07-27.09,0.01-40.63
			c0.05-7.43-0.43-14.87,0.31-22.28c0.42-4.2,2.74-6.79,6.02-6.44c3.69,0.4,5.61,2.62,5.65,6.43c0.05,4.51,0.28,9.02,0.29,13.52
			c0.04,16.46,0.03,32.93,0,49.39c-0.01,4.02-0.1,8.08-4.55,10.14C204.85,408.5,203.79,408.5,202.72,408.5z"/>
		<path class="st1" d="M209.05,106.12c15.44,0.34,29.85,4.6,43.16,12.19c25.58,14.59,42.11,36.34,48.14,65.16
			c6.63,31.66-0.7,60.27-21.78,85.02c-14.15,16.63-32.15,27.05-53.42,31.74c-5.27,1.16-10.61,2.43-16.12,1.99
			c-23.02-1.3-42.28-11.3-58.29-27.08c-19.67-19.38-29.78-43.23-29.72-71.18c0.05-27.79,10.3-51.36,29.69-70.81
			c13-13.05,28.84-21.59,46.91-25.77C201.39,106.52,205.26,106.69,209.05,106.12z"/>
		<path class="st2" d="M209.05,106.12c-7.19,1.54-14.43,2.78-21.41,5.31c-23.22,8.42-40.91,23.25-53.14,44.75
			c-10.08,17.74-14.02,36.9-12.22,56.95c1.83,20.49,9.7,38.74,23.02,54.7c8.49,10.17,18.77,17.91,30.28,24
			c9.85,5.21,20.47,8.58,31.66,9.76c0.61,0.06,1.2,0.43,1.8,0.65c-26.66,1.55-50.04-6.76-69.85-24.37
			c-25.04-22.27-36.03-50.75-32.76-83.84c4.24-42.81,34.88-75.92,74.97-85.6C190.5,106.23,199.7,105.34,209.05,106.12z"/>
		<path class="st0" d="M210.16,39.77c0,11.02,0.13,22.04-0.07,33.06c-0.08,4.29-2.56,6.65-5.89,6.57c-3.21-0.07-5.39-2.35-5.68-6.4
			c-0.29-4.1-0.34-8.22-0.35-12.33c-0.04-16.47-0.03-32.95,0-49.42c0-1.85,0.22-3.7,0.35-5.56c0.26-3.67,2.43-5.73,5.9-5.69
			c3.25,0.04,5.4,2,5.66,5.51c0.14,1.85,0.36,3.7,0.37,5.55c0.04,9.57,0.02,19.13,0.02,28.7C210.37,39.77,210.27,39.77,210.16,39.77
			z"/>
		<path class="st0" d="M366.9,210.34c-9.02-0.28-20.19,0.5-31.33-0.35c-4.08-0.31-6.35-2.44-6.47-5.63
			c-0.12-3.3,2.29-5.65,6.51-5.99c9.81-0.79,19.65-0.24,29.47-0.32c10.89-0.09,21.79-0.05,32.68,0c2.11,0.01,4.25,0.21,6.33,0.57
			c2.93,0.51,4.35,2.72,4.42,5.39c0.07,2.86-1.36,5.18-4.46,5.75c-2.08,0.38-4.22,0.55-6.33,0.56
			C388.16,210.37,378.59,210.34,366.9,210.34z"/>
		<path class="st1" d="M144.67,90.6c0.05,3.24-1.37,5.15-4.08,6c-3.19,1-5.49-0.54-7.05-3.09c-3.04-4.99-5.89-10.1-8.81-15.16
			c-7.9-13.7-15.8-27.39-23.68-41.1c-1.12-1.95-2.36-3.93-1.58-6.35c0.81-2.5,2.6-4.16,5.17-4.37c2.94-0.25,4.93,1.47,6.36,3.98
			c5.01,8.76,10.09,17.5,15.14,26.24c5.58,9.66,11.16,19.33,16.76,28.98C143.84,87.35,144.78,88.96,144.67,90.6z"/>
		<path class="st1" d="M269.41,96.95c-4.69-0.17-7-5.19-4.35-9.97c3.74-6.74,7.7-13.35,11.56-20.02
			c6.98-12.08,13.96-24.16,20.92-36.25c1.74-3.03,4.04-5.05,7.76-3.82c4.12,1.37,5.17,5.33,2.62,9.83
			c-3.6,6.36-7.32,12.65-10.98,18.98c-7.04,12.2-14.1,24.38-21.09,36.61C274.38,94.89,272.57,96.79,269.41,96.95z"/>
		<path class="st1" d="M317.9,144.54c-3.3,0.03-5.2-1.43-6.01-4.14c-0.93-3.16,0.55-5.48,3.14-7.04c5.24-3.14,10.58-6.12,15.87-9.18
			c13.35-7.7,26.7-15.4,40.05-23.1c1.96-1.13,3.93-2.43,6.31-1.85c2.54,0.62,4.26,2.37,4.65,4.93c0.45,2.96-1.15,5.08-3.64,6.53
			c-7.01,4.06-14.04,8.09-21.06,12.15c-11.39,6.58-22.78,13.16-34.16,19.75C321.33,143.59,319.64,144.67,317.9,144.54z"/>
		<path class="st1" d="M382.05,303.46c0.11,3.24-3.57,6.42-6.95,5.63c-1.27-0.3-2.52-0.87-3.65-1.52
			c-18.42-10.6-36.82-21.25-55.25-31.86c-2.15-1.24-3.99-2.65-4.5-5.25c-0.46-2.36,0.5-4.22,2.31-5.55c2.43-1.8,5.06-1.37,7.51,0.01
			c7.05,3.99,14.06,8.06,21.08,12.12c11.62,6.72,23.21,13.48,34.85,20.15C379.91,298.59,381.73,300.29,382.05,303.46z"/>
		<path class="st1" d="M105.02,381.92c-4.3-0.07-6.99-4.8-4.9-9.06c1.82-3.69,4.03-7.18,6.09-10.75
			c8.9-15.42,17.79-30.84,26.72-46.25c2.31-3.98,4.93-5.21,8.04-3.98c3.91,1.55,4.89,5.54,2.3,10.05
			c-5.88,10.26-11.83,20.48-17.75,30.71c-4.79,8.28-9.61,16.54-14.33,24.87C109.79,380.01,107.95,381.67,105.02,381.92z"/>
		<path class="st1" d="M309.48,376.21c-0.4,2.37-1.62,4.15-3.85,5.18c-2.21,1.02-4.14,0.36-5.94-0.98
			c-1.32-0.98-1.98-2.47-2.78-3.85c-10.3-17.83-20.61-35.66-30.91-53.49c-0.4-0.69-0.82-1.37-1.16-2.09
			c-1.72-3.62-0.94-7.06,1.98-8.75c2.97-1.72,6.31-0.71,8.42,2.87c4.87,8.23,9.61,16.54,14.38,24.83
			c5.91,10.24,11.78,20.51,17.71,30.74C308.36,372.4,309.21,374.17,309.48,376.21z"/>
		<path class="st1" d="M97.1,139.06c-0.14,4.7-5.16,7.03-9.94,4.37c-7.43-4.13-14.74-8.49-22.1-12.74
			c-11.39-6.58-22.77-13.18-34.19-19.7c-2.5-1.43-4.3-3.31-4.22-6.24c0.06-2.43,1.57-4.15,3.79-5.19c2.54-1.19,4.67,0.05,6.74,1.22
			c6.01,3.41,11.98,6.89,17.96,10.35c12.54,7.24,25.07,14.51,37.63,21.71C95.25,134.26,96.91,136.11,97.1,139.06z"/>
		<path class="st1" d="M97.09,269.49c-0.23,2.59-1.58,4.43-3.81,5.72c-18.87,10.89-37.72,21.82-56.62,32.67
			c-4.04,2.32-7.41,1.56-9.31-1.79c-1.72-3.04-0.5-6.34,3.35-8.58c18.62-10.8,37.25-21.58,55.91-32.31
			C91.8,262.21,97.13,264.47,97.09,269.49z"/>
	</g>
</g>
</svg>
